%TF.GenerationSoftware,KiCad,Pcbnew,7.0.6*%
%TF.CreationDate,2024-05-30T22:34:02-07:00*%
%TF.ProjectId,pmod_lvl_shft,706d6f64-5f6c-4766-9c5f-736866742e6b,rev?*%
%TF.SameCoordinates,Original*%
%TF.FileFunction,Copper,L1,Top*%
%TF.FilePolarity,Positive*%
%FSLAX46Y46*%
G04 Gerber Fmt 4.6, Leading zero omitted, Abs format (unit mm)*
G04 Created by KiCad (PCBNEW 7.0.6) date 2024-05-30 22:34:02*
%MOMM*%
%LPD*%
G01*
G04 APERTURE LIST*
G04 Aperture macros list*
%AMRoundRect*
0 Rectangle with rounded corners*
0 $1 Rounding radius*
0 $2 $3 $4 $5 $6 $7 $8 $9 X,Y pos of 4 corners*
0 Add a 4 corners polygon primitive as box body*
4,1,4,$2,$3,$4,$5,$6,$7,$8,$9,$2,$3,0*
0 Add four circle primitives for the rounded corners*
1,1,$1+$1,$2,$3*
1,1,$1+$1,$4,$5*
1,1,$1+$1,$6,$7*
1,1,$1+$1,$8,$9*
0 Add four rect primitives between the rounded corners*
20,1,$1+$1,$2,$3,$4,$5,0*
20,1,$1+$1,$4,$5,$6,$7,0*
20,1,$1+$1,$6,$7,$8,$9,0*
20,1,$1+$1,$8,$9,$2,$3,0*%
G04 Aperture macros list end*
%TA.AperFunction,SMDPad,CuDef*%
%ADD10RoundRect,0.200000X-0.275000X0.200000X-0.275000X-0.200000X0.275000X-0.200000X0.275000X0.200000X0*%
%TD*%
%TA.AperFunction,ComponentPad*%
%ADD11R,1.700000X1.700000*%
%TD*%
%TA.AperFunction,ComponentPad*%
%ADD12O,1.700000X1.700000*%
%TD*%
%TA.AperFunction,SMDPad,CuDef*%
%ADD13RoundRect,0.225000X-0.250000X0.225000X-0.250000X-0.225000X0.250000X-0.225000X0.250000X0.225000X0*%
%TD*%
%TA.AperFunction,SMDPad,CuDef*%
%ADD14R,1.100000X0.200000*%
%TD*%
%TA.AperFunction,SMDPad,CuDef*%
%ADD15R,1.000000X0.200000*%
%TD*%
%TA.AperFunction,ViaPad*%
%ADD16C,0.800000*%
%TD*%
%TA.AperFunction,Conductor*%
%ADD17C,0.127000*%
%TD*%
%TA.AperFunction,Conductor*%
%ADD18C,0.254000*%
%TD*%
%TA.AperFunction,Conductor*%
%ADD19C,0.406400*%
%TD*%
%TA.AperFunction,Conductor*%
%ADD20C,0.203200*%
%TD*%
G04 APERTURE END LIST*
D10*
%TO.P,R1,1*%
%TO.N,/VCCA*%
X158242000Y-63120000D03*
%TO.P,R1,2*%
%TO.N,GND*%
X158242000Y-64770000D03*
%TD*%
D11*
%TO.P,J7,1,Pin_1*%
%TO.N,/B1*%
X137160000Y-53340000D03*
D12*
%TO.P,J7,2,Pin_2*%
%TO.N,/B2*%
X137160000Y-55880000D03*
%TO.P,J7,3,Pin_3*%
%TO.N,/B3*%
X137160000Y-58420000D03*
%TO.P,J7,4,Pin_4*%
%TO.N,/B4*%
X137160000Y-60960000D03*
%TO.P,J7,5,Pin_5*%
%TO.N,/B5*%
X137160000Y-63500000D03*
%TO.P,J7,6,Pin_6*%
%TO.N,/B6*%
X137160000Y-66040000D03*
%TO.P,J7,7,Pin_7*%
%TO.N,/B7*%
X137160000Y-68580000D03*
%TO.P,J7,8,Pin_8*%
%TO.N,/B8*%
X137160000Y-71120000D03*
%TD*%
D11*
%TO.P,J6,1,Pin_1*%
%TO.N,/A1*%
X163322000Y-53340000D03*
D12*
%TO.P,J6,2,Pin_2*%
%TO.N,/A2*%
X163322000Y-55880000D03*
%TO.P,J6,3,Pin_3*%
%TO.N,/A3*%
X163322000Y-58420000D03*
%TO.P,J6,4,Pin_4*%
%TO.N,/A4*%
X163322000Y-60960000D03*
%TO.P,J6,5,Pin_5*%
%TO.N,/A5*%
X163322000Y-63500000D03*
%TO.P,J6,6,Pin_6*%
%TO.N,/A6*%
X163322000Y-66040000D03*
%TO.P,J6,7,Pin_7*%
%TO.N,/A7*%
X163322000Y-68580000D03*
%TO.P,J6,8,Pin_8*%
%TO.N,/A8*%
X163322000Y-71120000D03*
%TD*%
D11*
%TO.P,J5,1,Pin_1*%
%TO.N,GND*%
X149860000Y-53760000D03*
D12*
%TO.P,J5,2,Pin_2*%
X152400000Y-53760000D03*
%TD*%
D11*
%TO.P,J4,1,Pin_1*%
%TO.N,GND*%
X170180000Y-53340000D03*
D12*
%TO.P,J4,2,Pin_2*%
X172720000Y-53340000D03*
%TD*%
D11*
%TO.P,J3,1,Pin_1*%
%TO.N,/VCCA*%
X152913000Y-68829000D03*
D12*
%TO.P,J3,2,Pin_2*%
X152913000Y-71369000D03*
%TO.P,J3,3,Pin_3*%
%TO.N,/VCCB*%
X150373000Y-68829000D03*
%TO.P,J3,4,Pin_4*%
X150373000Y-71369000D03*
%TD*%
%TO.P,J2,12,Pin_12*%
%TO.N,/B5*%
X126492000Y-55880000D03*
%TO.P,J2,11,Pin_11*%
%TO.N,/B1*%
X129032000Y-55880000D03*
%TO.P,J2,10,Pin_10*%
%TO.N,/B6*%
X126492000Y-58420000D03*
%TO.P,J2,9,Pin_9*%
%TO.N,/B2*%
X129032000Y-58420000D03*
%TO.P,J2,8,Pin_8*%
%TO.N,/B7*%
X126492000Y-60960000D03*
%TO.P,J2,7,Pin_7*%
%TO.N,/B3*%
X129032000Y-60960000D03*
%TO.P,J2,6,Pin_6*%
%TO.N,/B8*%
X126492000Y-63500000D03*
%TO.P,J2,5,Pin_5*%
%TO.N,/B4*%
X129032000Y-63500000D03*
%TO.P,J2,4,Pin_4*%
%TO.N,GND*%
X126492000Y-66040000D03*
%TO.P,J2,3,Pin_3*%
X129032000Y-66040000D03*
%TO.P,J2,2,Pin_2*%
%TO.N,/VCCB*%
X126492000Y-68580000D03*
D11*
%TO.P,J2,1,Pin_1*%
X129032000Y-68580000D03*
%TD*%
%TO.P,J1,1,Pin_1*%
%TO.N,/A1*%
X170180000Y-60960000D03*
D12*
%TO.P,J1,2,Pin_2*%
%TO.N,/A2*%
X172720000Y-60960000D03*
%TO.P,J1,3,Pin_3*%
%TO.N,/A3*%
X170180000Y-63500000D03*
%TO.P,J1,4,Pin_4*%
%TO.N,/A4*%
X172720000Y-63500000D03*
%TO.P,J1,5,Pin_5*%
%TO.N,/A5*%
X170180000Y-66040000D03*
%TO.P,J1,6,Pin_6*%
%TO.N,/A6*%
X172720000Y-66040000D03*
%TO.P,J1,7,Pin_7*%
%TO.N,/A7*%
X170180000Y-68580000D03*
%TO.P,J1,8,Pin_8*%
%TO.N,/A8*%
X172720000Y-68580000D03*
%TD*%
D13*
%TO.P,C2,1*%
%TO.N,/VCCB*%
X147320000Y-63145000D03*
%TO.P,C2,2*%
%TO.N,GND*%
X147320000Y-64695000D03*
%TD*%
%TO.P,C1,2*%
%TO.N,GND*%
X155448000Y-64783000D03*
%TO.P,C1,1*%
%TO.N,/VCCA*%
X155448000Y-63233000D03*
%TD*%
D14*
%TO.P,U1,1,A1*%
%TO.N,/A1*%
X152350000Y-64180000D03*
D15*
%TO.P,U1,2,A2*%
%TO.N,/A2*%
X152400000Y-63780000D03*
%TO.P,U1,3,A3*%
%TO.N,/A3*%
X152400000Y-63380000D03*
%TO.P,U1,4,A4*%
%TO.N,/A4*%
X152400000Y-62980000D03*
%TO.P,U1,5,VCCA*%
%TO.N,/VCCA*%
X152400000Y-62580000D03*
%TO.P,U1,6,OE*%
X152400000Y-62180000D03*
%TO.P,U1,7,A5*%
%TO.N,/A5*%
X152400000Y-61780000D03*
%TO.P,U1,8,A6*%
%TO.N,/A6*%
X152400000Y-61380000D03*
%TO.P,U1,9,A7*%
%TO.N,/A7*%
X152400000Y-60980000D03*
%TO.P,U1,10,A8*%
%TO.N,/A8*%
X152400000Y-60580000D03*
%TO.P,U1,11,B8*%
%TO.N,/B8*%
X150600000Y-60580000D03*
%TO.P,U1,12,B7*%
%TO.N,/B7*%
X150600000Y-60980000D03*
%TO.P,U1,13,B6*%
%TO.N,/B6*%
X150600000Y-61380000D03*
%TO.P,U1,14,B5*%
%TO.N,/B5*%
X150600000Y-61780000D03*
%TO.P,U1,15,GND*%
%TO.N,GND*%
X150600000Y-62180000D03*
%TO.P,U1,16,VCCB*%
%TO.N,/VCCB*%
X150600000Y-62580000D03*
%TO.P,U1,17,B4*%
%TO.N,/B4*%
X150600000Y-62980000D03*
%TO.P,U1,18,B3*%
%TO.N,/B3*%
X150600000Y-63380000D03*
%TO.P,U1,19,B2*%
%TO.N,/B2*%
X150600000Y-63780000D03*
%TO.P,U1,20,B1*%
%TO.N,/B1*%
X150600000Y-64180000D03*
%TD*%
D16*
%TO.N,GND*%
X166133500Y-59690000D03*
X166116000Y-70104000D03*
X166133500Y-67943500D03*
X161798000Y-67564000D03*
X166133500Y-65024000D03*
X166133500Y-62484000D03*
X132080000Y-67564000D03*
X132080000Y-64770000D03*
X132842000Y-57150000D03*
X131572000Y-61722000D03*
X134620000Y-64516000D03*
X134620000Y-61976000D03*
X132842000Y-60198000D03*
X156423300Y-65024000D03*
X159512000Y-62484000D03*
X159512000Y-64770000D03*
X144272000Y-57404000D03*
X142748000Y-59182000D03*
X144272000Y-60960000D03*
%TO.N,/B3*%
X145999200Y-69951600D03*
X141732000Y-67233800D03*
%TO.N,GND*%
X142976600Y-72136000D03*
X158191200Y-56159400D03*
X158191200Y-58826400D03*
X159156400Y-67589400D03*
X142996286Y-62743714D03*
X132836286Y-62743714D03*
%TO.N,/A3*%
X160553400Y-66167000D03*
%TO.N,/A4*%
X154123636Y-63376564D03*
%TO.N,/A3*%
X154940000Y-66090800D03*
%TO.N,/A8*%
X154178000Y-59690000D03*
%TO.N,/A7*%
X155956000Y-59436000D03*
%TO.N,/A6*%
X155702000Y-60452000D03*
%TO.N,/A5*%
X155702000Y-61480500D03*
%TO.N,/A2*%
X153924000Y-65532000D03*
%TO.N,/A1*%
X153162000Y-66294000D03*
%TO.N,GND*%
X142976600Y-69596000D03*
X143007714Y-65029714D03*
X143002000Y-66802000D03*
X146442781Y-65647219D03*
%TO.N,/B4*%
X148336000Y-58420000D03*
%TO.N,/B8*%
X149199082Y-59842918D03*
%TO.N,/B7*%
X145404299Y-59181061D03*
%TO.N,GND*%
X146050000Y-61992497D03*
%TO.N,/B4*%
X148591551Y-62961134D03*
%TO.N,/B3*%
X148541376Y-63959376D03*
%TO.N,/B2*%
X144820700Y-67564000D03*
%TO.N,/B1*%
X146595245Y-67702379D03*
%TD*%
D17*
%TO.N,/B8*%
X150600000Y-60580000D02*
X149936164Y-60580000D01*
X149936164Y-60580000D02*
X149199082Y-59842918D01*
D18*
%TO.N,/B4*%
X139700000Y-58420000D02*
X148336000Y-58420000D01*
X137160000Y-60960000D02*
X139700000Y-58420000D01*
D17*
%TO.N,/B2*%
X148737124Y-64622876D02*
X145796000Y-67564000D01*
X145796000Y-67564000D02*
X144820700Y-67564000D01*
X148991124Y-64622876D02*
X148737124Y-64622876D01*
X149834000Y-63780000D02*
X148991124Y-64622876D01*
X150600000Y-63780000D02*
X149834000Y-63780000D01*
D18*
%TO.N,/A7*%
X163576000Y-68834000D02*
X163322000Y-68580000D01*
X169926000Y-68834000D02*
X163576000Y-68834000D01*
X170180000Y-68580000D02*
X169926000Y-68834000D01*
D19*
%TO.N,GND*%
X156182300Y-64783000D02*
X156423300Y-65024000D01*
X155448000Y-64783000D02*
X156182300Y-64783000D01*
%TO.N,/VCCA*%
X157226000Y-63373000D02*
X156743400Y-63373000D01*
X152913000Y-68829000D02*
X154169400Y-68829000D01*
X154169400Y-68829000D02*
X157226000Y-65772400D01*
X157226000Y-65772400D02*
X157226000Y-63373000D01*
%TO.N,GND*%
X146442781Y-65572219D02*
X147320000Y-64695000D01*
X146442781Y-65647219D02*
X146442781Y-65572219D01*
D17*
%TO.N,/B1*%
X146673621Y-67702379D02*
X150196000Y-64180000D01*
X146595245Y-67702379D02*
X146673621Y-67702379D01*
X150196000Y-64180000D02*
X150600000Y-64180000D01*
D19*
%TO.N,/VCCB*%
X144018000Y-68072000D02*
X144018000Y-66447000D01*
X144775000Y-68829000D02*
X144018000Y-68072000D01*
X144018000Y-66447000D02*
X147320000Y-63145000D01*
X150373000Y-68829000D02*
X144775000Y-68829000D01*
D18*
%TO.N,/B3*%
X144449800Y-69951600D02*
X145999200Y-69951600D01*
X141732000Y-67233800D02*
X144449800Y-69951600D01*
D17*
%TO.N,/B7*%
X149398540Y-60980000D02*
X150600000Y-60980000D01*
X147599601Y-59181061D02*
X149398540Y-60980000D01*
X145404299Y-59181061D02*
X147599601Y-59181061D01*
D19*
%TO.N,/VCCB*%
X148488400Y-73253600D02*
X150373000Y-71369000D01*
X133705600Y-73253600D02*
X148488400Y-73253600D01*
X129032000Y-68580000D02*
X133705600Y-73253600D01*
D18*
%TO.N,/A8*%
X170180000Y-71120000D02*
X163322000Y-71120000D01*
X172720000Y-68580000D02*
X170180000Y-71120000D01*
%TO.N,/A6*%
X164499000Y-67217000D02*
X163322000Y-66040000D01*
X171543000Y-67217000D02*
X164499000Y-67217000D01*
X172720000Y-66040000D02*
X171543000Y-67217000D01*
%TO.N,/A4*%
X171543000Y-64677000D02*
X167039000Y-64677000D01*
X172720000Y-63500000D02*
X171543000Y-64677000D01*
X167039000Y-64677000D02*
X163322000Y-60960000D01*
%TO.N,/A5*%
X165862000Y-66040000D02*
X163322000Y-63500000D01*
X170180000Y-66040000D02*
X165862000Y-66040000D01*
%TO.N,/A3*%
X168402000Y-63500000D02*
X163322000Y-58420000D01*
X170180000Y-63500000D02*
X168402000Y-63500000D01*
%TO.N,/A1*%
X170180000Y-60960000D02*
X163322000Y-54102000D01*
X163322000Y-54102000D02*
X163322000Y-53340000D01*
D19*
%TO.N,/VCCA*%
X157989000Y-63373000D02*
X158242000Y-63120000D01*
X156743400Y-63373000D02*
X157989000Y-63373000D01*
X156743400Y-63373000D02*
X155588000Y-63373000D01*
X155588000Y-63373000D02*
X155448000Y-63233000D01*
D18*
%TO.N,/A3*%
X160553400Y-61188600D02*
X160553400Y-66167000D01*
X163322000Y-58420000D02*
X160553400Y-61188600D01*
D17*
%TO.N,/A4*%
X153727072Y-62980000D02*
X154123636Y-63376564D01*
X152400000Y-62980000D02*
X153727072Y-62980000D01*
%TO.N,/A3*%
X154709500Y-65860300D02*
X154940000Y-66090800D01*
X154709500Y-64900052D02*
X154709500Y-65860300D01*
X153189448Y-63380000D02*
X154709500Y-64900052D01*
X152400000Y-63380000D02*
X153189448Y-63380000D01*
%TO.N,/A2*%
X153924000Y-64577000D02*
X153127000Y-63780000D01*
X153924000Y-65532000D02*
X153924000Y-64577000D01*
X153127000Y-63780000D02*
X152400000Y-63780000D01*
%TO.N,/A1*%
X153162000Y-64516000D02*
X152826000Y-64180000D01*
X153162000Y-66294000D02*
X153162000Y-64516000D01*
X152826000Y-64180000D02*
X152350000Y-64180000D01*
%TO.N,/A8*%
X153288000Y-60580000D02*
X154178000Y-59690000D01*
X152400000Y-60580000D02*
X153288000Y-60580000D01*
%TO.N,/A7*%
X155779669Y-59436000D02*
X155956000Y-59436000D01*
X155105835Y-60109834D02*
X155779669Y-59436000D01*
X154235669Y-60980000D02*
X155105835Y-60109834D01*
X152400000Y-60980000D02*
X154235669Y-60980000D01*
%TO.N,/A6*%
X154774000Y-61380000D02*
X155702000Y-60452000D01*
X152400000Y-61380000D02*
X154774000Y-61380000D01*
%TO.N,/A5*%
X155402500Y-61780000D02*
X155702000Y-61480500D01*
X152400000Y-61780000D02*
X155402500Y-61780000D01*
D20*
%TO.N,/VCCA*%
X157303600Y-62181600D02*
X152400000Y-62181600D01*
X158242000Y-63120000D02*
X157303600Y-62181600D01*
D17*
X154795000Y-62580000D02*
X155448000Y-63233000D01*
X152400000Y-62580000D02*
X154795000Y-62580000D01*
D19*
X152913000Y-71369000D02*
X152913000Y-68829000D01*
%TO.N,/VCCB*%
X146203000Y-63145000D02*
X146050000Y-62992000D01*
X147320000Y-63145000D02*
X146203000Y-63145000D01*
X150373000Y-68829000D02*
X150373000Y-71369000D01*
X126492000Y-68580000D02*
X129032000Y-68580000D01*
D18*
%TO.N,/B5*%
X139793000Y-67217000D02*
X146050000Y-60960000D01*
X136672470Y-67217000D02*
X139793000Y-67217000D01*
X135983000Y-64677000D02*
X135983000Y-66527530D01*
X135983000Y-66527530D02*
X136672470Y-67217000D01*
X137160000Y-63500000D02*
X135983000Y-64677000D01*
%TO.N,/B6*%
X143256000Y-59944000D02*
X146050000Y-59944000D01*
X137160000Y-66040000D02*
X143256000Y-59944000D01*
D17*
X147900092Y-59944000D02*
X146050000Y-59944000D01*
X149336092Y-61380000D02*
X147900092Y-59944000D01*
X150600000Y-61380000D02*
X149336092Y-61380000D01*
%TO.N,/B5*%
X148453644Y-60960000D02*
X146050000Y-60960000D01*
X149273644Y-61780000D02*
X148453644Y-60960000D01*
X150600000Y-61780000D02*
X149273644Y-61780000D01*
%TO.N,GND*%
X146071863Y-61970634D02*
X146050000Y-61992497D01*
X149001830Y-61970634D02*
X146071863Y-61970634D01*
X149211196Y-62180000D02*
X149001830Y-61970634D01*
X150600000Y-62180000D02*
X149211196Y-62180000D01*
%TO.N,/VCCB*%
X146744366Y-62297634D02*
X146050000Y-62992000D01*
X148866382Y-62297634D02*
X146744366Y-62297634D01*
X149148748Y-62580000D02*
X148866382Y-62297634D01*
X150600000Y-62580000D02*
X149148748Y-62580000D01*
%TO.N,/B4*%
X148610417Y-62980000D02*
X148591551Y-62961134D01*
X150600000Y-62980000D02*
X148610417Y-62980000D01*
%TO.N,/B3*%
X149120752Y-63380000D02*
X148541376Y-63959376D01*
X150600000Y-63380000D02*
X149120752Y-63380000D01*
D18*
%TO.N,/B4*%
X134620000Y-63500000D02*
X129032000Y-63500000D01*
X137160000Y-60960000D02*
X134620000Y-63500000D01*
%TO.N,/B3*%
X134620000Y-60960000D02*
X129032000Y-60960000D01*
X137160000Y-58420000D02*
X134620000Y-60960000D01*
%TO.N,/B2*%
X134620000Y-58420000D02*
X129032000Y-58420000D01*
X137160000Y-55880000D02*
X134620000Y-58420000D01*
%TO.N,/B1*%
X131572000Y-53340000D02*
X129032000Y-55880000D01*
X137160000Y-53340000D02*
X131572000Y-53340000D01*
%TD*%
%TA.AperFunction,Conductor*%
%TO.N,GND*%
G36*
X135723675Y-63386256D02*
G01*
X135779608Y-63428128D01*
X135804025Y-63493592D01*
X135804193Y-63498319D01*
X135824936Y-63735403D01*
X135824938Y-63735413D01*
X135851258Y-63833641D01*
X135849595Y-63903491D01*
X135819164Y-63953415D01*
X135597953Y-64174626D01*
X135585669Y-64184469D01*
X135585849Y-64184687D01*
X135579838Y-64189659D01*
X135532322Y-64240258D01*
X135511375Y-64261205D01*
X135507106Y-64266709D01*
X135503315Y-64271147D01*
X135471308Y-64305230D01*
X135471305Y-64305234D01*
X135461606Y-64322877D01*
X135450928Y-64339133D01*
X135438594Y-64355034D01*
X135438589Y-64355042D01*
X135420025Y-64397943D01*
X135417454Y-64403191D01*
X135394927Y-64444167D01*
X135389920Y-64463668D01*
X135383621Y-64482064D01*
X135379499Y-64491592D01*
X135375625Y-64500544D01*
X135375624Y-64500546D01*
X135368312Y-64546716D01*
X135367127Y-64552438D01*
X135355500Y-64597723D01*
X135355500Y-64617858D01*
X135353973Y-64637255D01*
X135350825Y-64657133D01*
X135351921Y-64668730D01*
X135355225Y-64703677D01*
X135355500Y-64709515D01*
X135355500Y-66444562D01*
X135353772Y-66460211D01*
X135354054Y-66460238D01*
X135353319Y-66468005D01*
X135355500Y-66537389D01*
X135355500Y-66567007D01*
X135356371Y-66573910D01*
X135356829Y-66579729D01*
X135358298Y-66626472D01*
X135363916Y-66645805D01*
X135367862Y-66664859D01*
X135370383Y-66684817D01*
X135370386Y-66684829D01*
X135387595Y-66728295D01*
X135389487Y-66733823D01*
X135402530Y-66778717D01*
X135402530Y-66778718D01*
X135412777Y-66796045D01*
X135421335Y-66813515D01*
X135428745Y-66832231D01*
X135456229Y-66870059D01*
X135459437Y-66874943D01*
X135483234Y-66915182D01*
X135483240Y-66915190D01*
X135497469Y-66929418D01*
X135510109Y-66944217D01*
X135521934Y-66960494D01*
X135521936Y-66960495D01*
X135521937Y-66960497D01*
X135537069Y-66973015D01*
X135557957Y-66990295D01*
X135562268Y-66994217D01*
X135838251Y-67270200D01*
X136111945Y-67543894D01*
X136145430Y-67605217D01*
X136140446Y-67674909D01*
X136123756Y-67703566D01*
X136124610Y-67704164D01*
X135985965Y-67902169D01*
X135985964Y-67902171D01*
X135886098Y-68116335D01*
X135886094Y-68116344D01*
X135824938Y-68344586D01*
X135824936Y-68344596D01*
X135804341Y-68579999D01*
X135804341Y-68580000D01*
X135824936Y-68815403D01*
X135824938Y-68815413D01*
X135886094Y-69043655D01*
X135886096Y-69043659D01*
X135886097Y-69043663D01*
X135985965Y-69257829D01*
X135985965Y-69257830D01*
X135985967Y-69257834D01*
X136057222Y-69359596D01*
X136113401Y-69439828D01*
X136121501Y-69451395D01*
X136121506Y-69451402D01*
X136288597Y-69618493D01*
X136288603Y-69618498D01*
X136474158Y-69748425D01*
X136517783Y-69803002D01*
X136524977Y-69872500D01*
X136493454Y-69934855D01*
X136474158Y-69951575D01*
X136288597Y-70081505D01*
X136121505Y-70248597D01*
X135985965Y-70442169D01*
X135985964Y-70442171D01*
X135886098Y-70656335D01*
X135886094Y-70656344D01*
X135824938Y-70884586D01*
X135824936Y-70884596D01*
X135804341Y-71119999D01*
X135804341Y-71120000D01*
X135824936Y-71355403D01*
X135824938Y-71355413D01*
X135886094Y-71583655D01*
X135886096Y-71583659D01*
X135886097Y-71583663D01*
X135961875Y-71746169D01*
X135985965Y-71797830D01*
X135985967Y-71797834D01*
X136016215Y-71841032D01*
X136121505Y-71991401D01*
X136288599Y-72158495D01*
X136385384Y-72226265D01*
X136482165Y-72294032D01*
X136482167Y-72294033D01*
X136482170Y-72294035D01*
X136523952Y-72313518D01*
X136576391Y-72359690D01*
X136595543Y-72426884D01*
X136575327Y-72493765D01*
X136522162Y-72539099D01*
X136471547Y-72549900D01*
X134048444Y-72549900D01*
X133981405Y-72530215D01*
X133960763Y-72513581D01*
X130418818Y-68971636D01*
X130385333Y-68910313D01*
X130382499Y-68883955D01*
X130382499Y-67682129D01*
X130382498Y-67682123D01*
X130382061Y-67678060D01*
X130376091Y-67622517D01*
X130374810Y-67619083D01*
X130325797Y-67487671D01*
X130325793Y-67487664D01*
X130239547Y-67372455D01*
X130239544Y-67372452D01*
X130124335Y-67286206D01*
X130124328Y-67286202D01*
X129992401Y-67236997D01*
X129936467Y-67195126D01*
X129912050Y-67129662D01*
X129926902Y-67061389D01*
X129948053Y-67033133D01*
X130070108Y-66911078D01*
X130205600Y-66717578D01*
X130305429Y-66503492D01*
X130305432Y-66503486D01*
X130362636Y-66290000D01*
X129465686Y-66290000D01*
X129491493Y-66249844D01*
X129532000Y-66111889D01*
X129532000Y-65968111D01*
X129491493Y-65830156D01*
X129465686Y-65790000D01*
X130362636Y-65790000D01*
X130362635Y-65789999D01*
X130305432Y-65576513D01*
X130305429Y-65576507D01*
X130205600Y-65362422D01*
X130205599Y-65362420D01*
X130070113Y-65168926D01*
X130070108Y-65168920D01*
X129903078Y-65001890D01*
X129717405Y-64871879D01*
X129673780Y-64817302D01*
X129666588Y-64747804D01*
X129698110Y-64685449D01*
X129717406Y-64668730D01*
X129717842Y-64668425D01*
X129903401Y-64538495D01*
X130070495Y-64371401D01*
X130204252Y-64180375D01*
X130258829Y-64136752D01*
X130305827Y-64127500D01*
X134537033Y-64127500D01*
X134552681Y-64129227D01*
X134552708Y-64128946D01*
X134560475Y-64129680D01*
X134560476Y-64129679D01*
X134560477Y-64129680D01*
X134629860Y-64127500D01*
X134659476Y-64127500D01*
X134666378Y-64126627D01*
X134672190Y-64126169D01*
X134718943Y-64124701D01*
X134738272Y-64119084D01*
X134757328Y-64115137D01*
X134777293Y-64112616D01*
X134820770Y-64095401D01*
X134826276Y-64093516D01*
X134871191Y-64080468D01*
X134888515Y-64070221D01*
X134905983Y-64061663D01*
X134924703Y-64054253D01*
X134962542Y-64026759D01*
X134967391Y-64023574D01*
X135007656Y-63999763D01*
X135021897Y-63985520D01*
X135036678Y-63972897D01*
X135052967Y-63961063D01*
X135052969Y-63961059D01*
X135052971Y-63961059D01*
X135064845Y-63946703D01*
X135082776Y-63925028D01*
X135086689Y-63920728D01*
X135592662Y-63414755D01*
X135653983Y-63381272D01*
X135723675Y-63386256D01*
G37*
%TD.AperFunction*%
%TA.AperFunction,Conductor*%
G36*
X140758232Y-67241699D02*
G01*
X140814165Y-67283571D01*
X140838218Y-67344918D01*
X140846326Y-67422056D01*
X140846327Y-67422059D01*
X140904818Y-67602077D01*
X140904821Y-67602084D01*
X140999467Y-67766016D01*
X141122060Y-67902169D01*
X141126129Y-67906688D01*
X141279265Y-68017948D01*
X141279270Y-68017951D01*
X141452192Y-68094942D01*
X141452197Y-68094944D01*
X141637354Y-68134300D01*
X141693719Y-68134300D01*
X141760758Y-68153985D01*
X141781400Y-68170619D01*
X143947424Y-70336643D01*
X143957271Y-70348933D01*
X143957489Y-70348754D01*
X143962457Y-70354760D01*
X144013057Y-70402277D01*
X144034005Y-70423224D01*
X144039506Y-70427491D01*
X144043945Y-70431282D01*
X144078033Y-70463293D01*
X144095684Y-70472996D01*
X144111934Y-70483671D01*
X144127838Y-70496008D01*
X144127841Y-70496010D01*
X144170742Y-70514574D01*
X144175990Y-70517144D01*
X144216966Y-70539672D01*
X144236040Y-70544569D01*
X144236460Y-70544677D01*
X144254864Y-70550977D01*
X144273342Y-70558974D01*
X144316838Y-70565862D01*
X144319524Y-70566288D01*
X144325229Y-70567469D01*
X144370528Y-70579100D01*
X144390658Y-70579100D01*
X144410057Y-70580627D01*
X144429933Y-70583775D01*
X144472579Y-70579743D01*
X144476479Y-70579375D01*
X144482317Y-70579100D01*
X145297253Y-70579100D01*
X145364292Y-70598785D01*
X145389399Y-70620123D01*
X145393329Y-70624488D01*
X145393332Y-70624491D01*
X145393335Y-70624493D01*
X145546465Y-70735748D01*
X145546470Y-70735751D01*
X145719392Y-70812742D01*
X145719397Y-70812744D01*
X145904554Y-70852100D01*
X145904555Y-70852100D01*
X146093844Y-70852100D01*
X146093846Y-70852100D01*
X146279003Y-70812744D01*
X146451930Y-70735751D01*
X146605071Y-70624488D01*
X146731733Y-70483816D01*
X146826379Y-70319884D01*
X146884874Y-70139856D01*
X146904660Y-69951600D01*
X146884874Y-69763344D01*
X146873024Y-69726873D01*
X146862674Y-69695017D01*
X146860679Y-69625176D01*
X146896760Y-69565344D01*
X146959461Y-69534516D01*
X146980605Y-69532700D01*
X149152529Y-69532700D01*
X149219568Y-69552385D01*
X149254103Y-69585576D01*
X149286267Y-69631511D01*
X149334505Y-69700401D01*
X149501599Y-69867495D01*
X149616423Y-69947895D01*
X149660048Y-70002471D01*
X149669300Y-70049470D01*
X149669300Y-70148528D01*
X149649615Y-70215567D01*
X149616425Y-70250102D01*
X149501595Y-70330508D01*
X149334505Y-70497597D01*
X149198965Y-70691169D01*
X149198964Y-70691171D01*
X149099098Y-70905335D01*
X149099094Y-70905344D01*
X149037938Y-71133586D01*
X149037936Y-71133596D01*
X149017341Y-71368999D01*
X149017341Y-71369000D01*
X149037937Y-71604408D01*
X149041486Y-71617655D01*
X149039820Y-71687505D01*
X149009391Y-71737425D01*
X148233237Y-72513581D01*
X148171914Y-72547066D01*
X148145556Y-72549900D01*
X137848453Y-72549900D01*
X137781414Y-72530215D01*
X137735659Y-72477411D01*
X137725715Y-72408253D01*
X137754740Y-72344697D01*
X137796046Y-72313518D01*
X137837830Y-72294035D01*
X138031401Y-72158495D01*
X138198495Y-71991401D01*
X138334035Y-71797830D01*
X138433903Y-71583663D01*
X138495063Y-71355408D01*
X138515659Y-71120000D01*
X138495063Y-70884592D01*
X138433903Y-70656337D01*
X138334035Y-70442171D01*
X138323753Y-70427486D01*
X138198494Y-70248597D01*
X138031402Y-70081506D01*
X138031396Y-70081501D01*
X137845842Y-69951575D01*
X137802217Y-69896998D01*
X137795023Y-69827500D01*
X137826546Y-69765145D01*
X137845842Y-69748425D01*
X137922116Y-69695017D01*
X138031401Y-69618495D01*
X138198495Y-69451401D01*
X138334035Y-69257830D01*
X138433903Y-69043663D01*
X138495063Y-68815408D01*
X138515659Y-68580000D01*
X138495063Y-68344592D01*
X138433903Y-68116337D01*
X138389402Y-68020905D01*
X138378910Y-67951827D01*
X138407430Y-67888043D01*
X138465906Y-67849804D01*
X138501784Y-67844500D01*
X139710033Y-67844500D01*
X139725681Y-67846227D01*
X139725708Y-67845946D01*
X139733475Y-67846680D01*
X139733476Y-67846679D01*
X139733477Y-67846680D01*
X139802860Y-67844500D01*
X139832476Y-67844500D01*
X139839378Y-67843627D01*
X139845190Y-67843169D01*
X139891943Y-67841701D01*
X139911272Y-67836084D01*
X139930328Y-67832137D01*
X139950293Y-67829616D01*
X139993770Y-67812401D01*
X139999276Y-67810516D01*
X140044191Y-67797468D01*
X140061515Y-67787221D01*
X140078983Y-67778663D01*
X140097703Y-67771253D01*
X140135542Y-67743759D01*
X140140391Y-67740574D01*
X140180656Y-67716763D01*
X140194897Y-67702520D01*
X140209678Y-67689897D01*
X140225967Y-67678063D01*
X140225969Y-67678059D01*
X140225971Y-67678059D01*
X140245073Y-67654967D01*
X140255776Y-67642028D01*
X140259689Y-67637728D01*
X140627219Y-67270198D01*
X140688540Y-67236715D01*
X140758232Y-67241699D01*
G37*
%TD.AperFunction*%
%TA.AperFunction,Conductor*%
G36*
X145274077Y-62725854D02*
G01*
X145330010Y-62767726D01*
X145354427Y-62833190D01*
X145353134Y-62856732D01*
X145353196Y-62856736D01*
X145352743Y-62864222D01*
X145352743Y-62864223D01*
X145352414Y-62869666D01*
X145342425Y-63034798D01*
X145342426Y-63034800D01*
X145373230Y-63202890D01*
X145443362Y-63358722D01*
X145443366Y-63358728D01*
X145464933Y-63386256D01*
X145522312Y-63459494D01*
X145678637Y-63615819D01*
X145712121Y-63677141D01*
X145707137Y-63746832D01*
X145678636Y-63791180D01*
X143536766Y-65933050D01*
X143534040Y-65935617D01*
X143487407Y-65976931D01*
X143487404Y-65976935D01*
X143452018Y-66028198D01*
X143449800Y-66031214D01*
X143411365Y-66080272D01*
X143411361Y-66080279D01*
X143407162Y-66089610D01*
X143396140Y-66109153D01*
X143390333Y-66117566D01*
X143390325Y-66117581D01*
X143368235Y-66175827D01*
X143366803Y-66179284D01*
X143341230Y-66236109D01*
X143341228Y-66236114D01*
X143339385Y-66246173D01*
X143333362Y-66267777D01*
X143329730Y-66277355D01*
X143322215Y-66339235D01*
X143321652Y-66342936D01*
X143310426Y-66404195D01*
X143310426Y-66404200D01*
X143314187Y-66466383D01*
X143314300Y-66470127D01*
X143314300Y-67629318D01*
X143294615Y-67696357D01*
X143241811Y-67742112D01*
X143172653Y-67752056D01*
X143109097Y-67723031D01*
X143102619Y-67716999D01*
X142670628Y-67285009D01*
X142637143Y-67223686D01*
X142634990Y-67210306D01*
X142617674Y-67045544D01*
X142559179Y-66865516D01*
X142464533Y-66701584D01*
X142337871Y-66560912D01*
X142337870Y-66560911D01*
X142184734Y-66449651D01*
X142184729Y-66449648D01*
X142011807Y-66372657D01*
X142011802Y-66372655D01*
X141833526Y-66334762D01*
X141772044Y-66301570D01*
X141738268Y-66240407D01*
X141742920Y-66170692D01*
X141771624Y-66125793D01*
X145143065Y-62754352D01*
X145204385Y-62720870D01*
X145274077Y-62725854D01*
G37*
%TD.AperFunction*%
%TA.AperFunction,Conductor*%
G36*
X146361145Y-65201549D02*
G01*
X146417078Y-65243421D01*
X146423349Y-65252634D01*
X146497424Y-65372728D01*
X146497427Y-65372732D01*
X146617267Y-65492572D01*
X146617271Y-65492575D01*
X146763690Y-65582888D01*
X146810415Y-65634836D01*
X146821636Y-65703798D01*
X146793793Y-65767880D01*
X146786274Y-65776107D01*
X145634905Y-66927477D01*
X145573582Y-66960962D01*
X145503890Y-66955978D01*
X145455073Y-66922767D01*
X145426574Y-66891115D01*
X145426569Y-66891110D01*
X145273434Y-66779851D01*
X145273429Y-66779848D01*
X145100507Y-66702857D01*
X145100500Y-66702855D01*
X145040872Y-66690181D01*
X144979390Y-66656989D01*
X144945613Y-66595826D01*
X144950265Y-66526112D01*
X144978969Y-66481212D01*
X146230133Y-65230048D01*
X146291453Y-65196565D01*
X146361145Y-65201549D01*
G37*
%TD.AperFunction*%
%TA.AperFunction,Conductor*%
G36*
X145318758Y-60591185D02*
G01*
X145364513Y-60643989D01*
X145374457Y-60713147D01*
X145345432Y-60776703D01*
X145339400Y-60783181D01*
X139569400Y-66553181D01*
X139508077Y-66586666D01*
X139481719Y-66589500D01*
X138572503Y-66589500D01*
X138505464Y-66569815D01*
X138459709Y-66517011D01*
X138449765Y-66447853D01*
X138452728Y-66433407D01*
X138468742Y-66373641D01*
X138495063Y-66275408D01*
X138515659Y-66040000D01*
X138514626Y-66028198D01*
X138501352Y-65876472D01*
X138495063Y-65804592D01*
X138473071Y-65722516D01*
X138468741Y-65706356D01*
X138470404Y-65636506D01*
X138500833Y-65586584D01*
X143479599Y-60607819D01*
X143540923Y-60574334D01*
X143567281Y-60571500D01*
X145251719Y-60571500D01*
X145318758Y-60591185D01*
G37*
%TD.AperFunction*%
%TA.AperFunction,Conductor*%
G36*
X128572507Y-65830156D02*
G01*
X128532000Y-65968111D01*
X128532000Y-66111889D01*
X128572507Y-66249844D01*
X128598314Y-66290000D01*
X126925686Y-66290000D01*
X126951493Y-66249844D01*
X126992000Y-66111889D01*
X126992000Y-65968111D01*
X126951493Y-65830156D01*
X126925686Y-65790000D01*
X128598314Y-65790000D01*
X128572507Y-65830156D01*
G37*
%TD.AperFunction*%
%TA.AperFunction,Conductor*%
G36*
X144442200Y-59067185D02*
G01*
X144487955Y-59119989D01*
X144496865Y-59174563D01*
X144498839Y-59174563D01*
X144498839Y-59187560D01*
X144497213Y-59187560D01*
X144486107Y-59248273D01*
X144438373Y-59299295D01*
X144375358Y-59316500D01*
X143338967Y-59316500D01*
X143323318Y-59314772D01*
X143323292Y-59315054D01*
X143315524Y-59314319D01*
X143246140Y-59316500D01*
X143216522Y-59316500D01*
X143209618Y-59317371D01*
X143203800Y-59317829D01*
X143157057Y-59319298D01*
X143137713Y-59324918D01*
X143118669Y-59328862D01*
X143115709Y-59329235D01*
X143098707Y-59331384D01*
X143098703Y-59331385D01*
X143098700Y-59331386D01*
X143055235Y-59348594D01*
X143049710Y-59350485D01*
X143004809Y-59363531D01*
X143004806Y-59363533D01*
X142987480Y-59373779D01*
X142970010Y-59382337D01*
X142951298Y-59389745D01*
X142913463Y-59417233D01*
X142908580Y-59420440D01*
X142868346Y-59444234D01*
X142854106Y-59458474D01*
X142839320Y-59471102D01*
X142823033Y-59482936D01*
X142823032Y-59482936D01*
X142793227Y-59518963D01*
X142789295Y-59523285D01*
X138727340Y-63585239D01*
X138666017Y-63618724D01*
X138596325Y-63613740D01*
X138540392Y-63571868D01*
X138515975Y-63506404D01*
X138515806Y-63501683D01*
X138515512Y-63498319D01*
X138495063Y-63264592D01*
X138433903Y-63036337D01*
X138334035Y-62822171D01*
X138328425Y-62814158D01*
X138198494Y-62628597D01*
X138031402Y-62461506D01*
X138031401Y-62461505D01*
X137908800Y-62375659D01*
X137845841Y-62331574D01*
X137802216Y-62276997D01*
X137795024Y-62207498D01*
X137826546Y-62145144D01*
X137845836Y-62128428D01*
X138031401Y-61998495D01*
X138198495Y-61831401D01*
X138334035Y-61637830D01*
X138433903Y-61423663D01*
X138495063Y-61195408D01*
X138515659Y-60960000D01*
X138515098Y-60953593D01*
X138506004Y-60849645D01*
X138495063Y-60724592D01*
X138479928Y-60668107D01*
X138468741Y-60626356D01*
X138470404Y-60556506D01*
X138500833Y-60506584D01*
X139923599Y-59083819D01*
X139984923Y-59050334D01*
X140011281Y-59047500D01*
X144375161Y-59047500D01*
X144442200Y-59067185D01*
G37*
%TD.AperFunction*%
%TA.AperFunction,Conductor*%
G36*
X135723675Y-60846257D02*
G01*
X135779608Y-60888129D01*
X135804025Y-60953593D01*
X135804193Y-60958318D01*
X135824936Y-61195403D01*
X135824938Y-61195413D01*
X135851258Y-61293641D01*
X135849595Y-61363491D01*
X135819164Y-61413415D01*
X134396400Y-62836181D01*
X134335077Y-62869666D01*
X134308719Y-62872500D01*
X130305826Y-62872500D01*
X130238787Y-62852815D01*
X130204251Y-62819623D01*
X130070494Y-62628597D01*
X129903402Y-62461506D01*
X129903401Y-62461505D01*
X129780800Y-62375659D01*
X129717841Y-62331574D01*
X129674216Y-62276997D01*
X129667024Y-62207498D01*
X129698546Y-62145144D01*
X129717836Y-62128428D01*
X129903401Y-61998495D01*
X130070495Y-61831401D01*
X130204252Y-61640375D01*
X130258829Y-61596752D01*
X130305827Y-61587500D01*
X134537033Y-61587500D01*
X134552681Y-61589227D01*
X134552708Y-61588946D01*
X134560475Y-61589680D01*
X134560476Y-61589679D01*
X134560477Y-61589680D01*
X134629860Y-61587500D01*
X134659476Y-61587500D01*
X134666378Y-61586627D01*
X134672190Y-61586169D01*
X134718943Y-61584701D01*
X134738272Y-61579084D01*
X134757328Y-61575137D01*
X134777293Y-61572616D01*
X134820770Y-61555401D01*
X134826276Y-61553516D01*
X134871191Y-61540468D01*
X134888515Y-61530221D01*
X134905983Y-61521663D01*
X134924703Y-61514253D01*
X134962542Y-61486759D01*
X134967391Y-61483574D01*
X135007656Y-61459763D01*
X135021897Y-61445520D01*
X135036678Y-61432897D01*
X135052967Y-61421063D01*
X135052969Y-61421059D01*
X135052971Y-61421059D01*
X135064845Y-61406703D01*
X135082776Y-61385028D01*
X135086689Y-61380728D01*
X135592660Y-60874757D01*
X135653983Y-60841273D01*
X135723675Y-60846257D01*
G37*
%TD.AperFunction*%
%TA.AperFunction,Conductor*%
G36*
X146581930Y-61543685D02*
G01*
X146627685Y-61596489D01*
X146637629Y-61665647D01*
X146608604Y-61729203D01*
X146562343Y-61762561D01*
X146459934Y-61804979D01*
X146381408Y-61865234D01*
X146316238Y-61890428D01*
X146247794Y-61876389D01*
X146197804Y-61827575D01*
X146182141Y-61759483D01*
X146205778Y-61693733D01*
X146218229Y-61679189D01*
X146337102Y-61560316D01*
X146398423Y-61526834D01*
X146424781Y-61524000D01*
X146514891Y-61524000D01*
X146581930Y-61543685D01*
G37*
%TD.AperFunction*%
%TA.AperFunction,Conductor*%
G36*
X135723675Y-58306256D02*
G01*
X135779608Y-58348128D01*
X135804025Y-58413592D01*
X135804193Y-58418319D01*
X135824936Y-58655403D01*
X135824938Y-58655413D01*
X135851258Y-58753641D01*
X135849595Y-58823491D01*
X135819164Y-58873415D01*
X134396400Y-60296181D01*
X134335077Y-60329666D01*
X134308719Y-60332500D01*
X130305826Y-60332500D01*
X130238787Y-60312815D01*
X130204251Y-60279623D01*
X130070494Y-60088597D01*
X129903402Y-59921506D01*
X129903401Y-59921505D01*
X129771872Y-59829407D01*
X129717841Y-59791574D01*
X129674216Y-59736997D01*
X129667024Y-59667498D01*
X129698546Y-59605144D01*
X129717836Y-59588428D01*
X129903401Y-59458495D01*
X130070495Y-59291401D01*
X130204252Y-59100375D01*
X130258829Y-59056752D01*
X130305827Y-59047500D01*
X134537033Y-59047500D01*
X134552681Y-59049227D01*
X134552708Y-59048946D01*
X134560475Y-59049680D01*
X134560476Y-59049679D01*
X134560477Y-59049680D01*
X134629860Y-59047500D01*
X134659476Y-59047500D01*
X134666378Y-59046627D01*
X134672190Y-59046169D01*
X134718943Y-59044701D01*
X134738272Y-59039084D01*
X134757328Y-59035137D01*
X134777293Y-59032616D01*
X134820770Y-59015401D01*
X134826276Y-59013516D01*
X134871191Y-59000468D01*
X134888515Y-58990221D01*
X134905983Y-58981663D01*
X134924703Y-58974253D01*
X134962542Y-58946759D01*
X134967391Y-58943574D01*
X135007656Y-58919763D01*
X135021897Y-58905520D01*
X135036678Y-58892897D01*
X135052967Y-58881063D01*
X135052969Y-58881059D01*
X135052971Y-58881059D01*
X135064845Y-58866703D01*
X135082776Y-58845028D01*
X135086689Y-58840728D01*
X135592662Y-58334755D01*
X135653983Y-58301272D01*
X135723675Y-58306256D01*
G37*
%TD.AperFunction*%
%TA.AperFunction,Conductor*%
G36*
X135752540Y-53987185D02*
G01*
X135798295Y-54039989D01*
X135809501Y-54091500D01*
X135809501Y-54237876D01*
X135815908Y-54297483D01*
X135866202Y-54432328D01*
X135866206Y-54432335D01*
X135952452Y-54547544D01*
X135952455Y-54547547D01*
X136067664Y-54633793D01*
X136067671Y-54633797D01*
X136199081Y-54682810D01*
X136255015Y-54724681D01*
X136279432Y-54790145D01*
X136264580Y-54858418D01*
X136243430Y-54886673D01*
X136121503Y-55008600D01*
X135985965Y-55202169D01*
X135985964Y-55202171D01*
X135886098Y-55416335D01*
X135886094Y-55416344D01*
X135824938Y-55644586D01*
X135824936Y-55644596D01*
X135804341Y-55879999D01*
X135804341Y-55880000D01*
X135824936Y-56115403D01*
X135824938Y-56115413D01*
X135851258Y-56213641D01*
X135849595Y-56283491D01*
X135819164Y-56333415D01*
X134396400Y-57756181D01*
X134335077Y-57789666D01*
X134308719Y-57792500D01*
X130305826Y-57792500D01*
X130238787Y-57772815D01*
X130204251Y-57739623D01*
X130070494Y-57548597D01*
X129903402Y-57381506D01*
X129903401Y-57381505D01*
X129717842Y-57251575D01*
X129717841Y-57251574D01*
X129674216Y-57196997D01*
X129667024Y-57127498D01*
X129698546Y-57065144D01*
X129717836Y-57048428D01*
X129903401Y-56918495D01*
X130070495Y-56751401D01*
X130206035Y-56557830D01*
X130305903Y-56343663D01*
X130367063Y-56115408D01*
X130387659Y-55880000D01*
X130367063Y-55644592D01*
X130340740Y-55546356D01*
X130342404Y-55476506D01*
X130372833Y-55426584D01*
X131795599Y-54003819D01*
X131856923Y-53970334D01*
X131883281Y-53967500D01*
X135685501Y-53967500D01*
X135752540Y-53987185D01*
G37*
%TD.AperFunction*%
%TA.AperFunction,Conductor*%
G36*
X169167281Y-69481185D02*
G01*
X169187923Y-69497818D01*
X169308599Y-69618495D01*
X169405384Y-69686264D01*
X169502165Y-69754032D01*
X169502167Y-69754033D01*
X169502170Y-69754035D01*
X169716337Y-69853903D01*
X169944592Y-69915063D01*
X170121034Y-69930500D01*
X170185394Y-69936131D01*
X170185238Y-69937913D01*
X170244598Y-69955344D01*
X170290353Y-70008148D01*
X170300297Y-70077306D01*
X170271272Y-70140862D01*
X170265240Y-70147340D01*
X169956400Y-70456181D01*
X169895077Y-70489666D01*
X169868719Y-70492500D01*
X164595826Y-70492500D01*
X164528787Y-70472815D01*
X164494251Y-70439623D01*
X164360494Y-70248597D01*
X164193402Y-70081506D01*
X164193396Y-70081501D01*
X164007842Y-69951575D01*
X163964217Y-69896998D01*
X163957023Y-69827500D01*
X163988546Y-69765145D01*
X164007842Y-69748425D01*
X164084116Y-69695017D01*
X164193401Y-69618495D01*
X164314077Y-69497819D01*
X164375400Y-69464334D01*
X164401758Y-69461500D01*
X169100242Y-69461500D01*
X169167281Y-69481185D01*
G37*
%TD.AperFunction*%
%TA.AperFunction,Conductor*%
G36*
X168905255Y-67864185D02*
G01*
X168951010Y-67916989D01*
X168960954Y-67986147D01*
X168950598Y-68020905D01*
X168906098Y-68116335D01*
X168904243Y-68121431D01*
X168902730Y-68120880D01*
X168870201Y-68174252D01*
X168807354Y-68204783D01*
X168786789Y-68206500D01*
X164715211Y-68206500D01*
X164648172Y-68186815D01*
X164602417Y-68134011D01*
X164597878Y-68121386D01*
X164597757Y-68121431D01*
X164595906Y-68116350D01*
X164595903Y-68116337D01*
X164551402Y-68020905D01*
X164540910Y-67951827D01*
X164569430Y-67888043D01*
X164627906Y-67849804D01*
X164663784Y-67844500D01*
X168838216Y-67844500D01*
X168905255Y-67864185D01*
G37*
%TD.AperFunction*%
%TA.AperFunction,Conductor*%
G36*
X164882862Y-63408726D02*
G01*
X164889325Y-63414744D01*
X165714839Y-64240258D01*
X166536624Y-65062043D01*
X166546471Y-65074333D01*
X166546689Y-65074154D01*
X166551657Y-65080160D01*
X166602257Y-65127677D01*
X166623201Y-65148620D01*
X166623207Y-65148626D01*
X166628697Y-65152883D01*
X166633147Y-65156683D01*
X166667233Y-65188693D01*
X166667234Y-65188693D01*
X166672921Y-65194034D01*
X166671890Y-65195131D01*
X166709198Y-65243519D01*
X166715173Y-65313133D01*
X166682563Y-65374926D01*
X166621722Y-65409279D01*
X166593644Y-65412500D01*
X166173281Y-65412500D01*
X166106242Y-65392815D01*
X166085600Y-65376181D01*
X164662835Y-63953416D01*
X164629350Y-63892093D01*
X164630741Y-63833641D01*
X164657063Y-63735408D01*
X164677659Y-63500000D01*
X164677659Y-63499999D01*
X164678131Y-63494606D01*
X164679913Y-63494761D01*
X164697344Y-63435400D01*
X164750148Y-63389645D01*
X164819306Y-63379701D01*
X164882862Y-63408726D01*
G37*
%TD.AperFunction*%
%TA.AperFunction,Conductor*%
G36*
X164882862Y-60868726D02*
G01*
X164889325Y-60874744D01*
X166379109Y-62364528D01*
X167852400Y-63837819D01*
X167885885Y-63899142D01*
X167880901Y-63968834D01*
X167839029Y-64024767D01*
X167773565Y-64049184D01*
X167764719Y-64049500D01*
X167350281Y-64049500D01*
X167283242Y-64029815D01*
X167262600Y-64013181D01*
X164662835Y-61413416D01*
X164629350Y-61352093D01*
X164630741Y-61293641D01*
X164657063Y-61195408D01*
X164677112Y-60966250D01*
X164678131Y-60954606D01*
X164679913Y-60954761D01*
X164697344Y-60895400D01*
X164750148Y-60849645D01*
X164819306Y-60839701D01*
X164882862Y-60868726D01*
G37*
%TD.AperFunction*%
%TA.AperFunction,Conductor*%
G36*
X164726856Y-56397992D02*
G01*
X164746673Y-56414092D01*
X168793181Y-60460600D01*
X168826666Y-60521923D01*
X168829500Y-60548281D01*
X168829500Y-61857870D01*
X168829501Y-61857876D01*
X168835908Y-61917483D01*
X168886202Y-62052328D01*
X168886206Y-62052335D01*
X168972452Y-62167544D01*
X168972455Y-62167547D01*
X169087664Y-62253793D01*
X169087671Y-62253797D01*
X169219081Y-62302810D01*
X169275015Y-62344681D01*
X169299432Y-62410145D01*
X169284580Y-62478418D01*
X169263430Y-62506673D01*
X169141503Y-62628600D01*
X169007749Y-62819623D01*
X168953172Y-62863248D01*
X168906174Y-62872500D01*
X168713281Y-62872500D01*
X168646242Y-62852815D01*
X168625600Y-62836181D01*
X164662835Y-58873416D01*
X164629350Y-58812093D01*
X164630741Y-58753641D01*
X164657063Y-58655408D01*
X164677659Y-58420000D01*
X164657063Y-58184592D01*
X164595903Y-57956337D01*
X164496035Y-57742171D01*
X164490425Y-57734158D01*
X164360494Y-57548597D01*
X164193402Y-57381506D01*
X164193396Y-57381501D01*
X164007842Y-57251575D01*
X163964217Y-57196998D01*
X163957023Y-57127500D01*
X163988546Y-57065145D01*
X164007842Y-57048425D01*
X164030026Y-57032891D01*
X164193401Y-56918495D01*
X164360495Y-56751401D01*
X164496035Y-56557830D01*
X164546613Y-56449363D01*
X164592781Y-56396930D01*
X164659974Y-56377777D01*
X164726856Y-56397992D01*
G37*
%TD.AperFunction*%
%TA.AperFunction,Conductor*%
G36*
X151940507Y-53550156D02*
G01*
X151900000Y-53688111D01*
X151900000Y-53831889D01*
X151940507Y-53969844D01*
X151966314Y-54010000D01*
X150293686Y-54010000D01*
X150319493Y-53969844D01*
X150360000Y-53831889D01*
X150360000Y-53688111D01*
X150319493Y-53550156D01*
X150293686Y-53510000D01*
X151966314Y-53510000D01*
X151940507Y-53550156D01*
G37*
%TD.AperFunction*%
%TA.AperFunction,Conductor*%
G36*
X172260507Y-53130156D02*
G01*
X172220000Y-53268111D01*
X172220000Y-53411889D01*
X172260507Y-53549844D01*
X172286314Y-53590000D01*
X170613686Y-53590000D01*
X170639493Y-53549844D01*
X170680000Y-53411889D01*
X170680000Y-53268111D01*
X170639493Y-53130156D01*
X170613686Y-53090000D01*
X172286314Y-53090000D01*
X172260507Y-53130156D01*
G37*
%TD.AperFunction*%
%TA.AperFunction,Conductor*%
G36*
X176532694Y-49830735D02*
G01*
X176687546Y-49844283D01*
X176708823Y-49848034D01*
X176851111Y-49886160D01*
X176871420Y-49893553D01*
X177004914Y-49955802D01*
X177023633Y-49966609D01*
X177144299Y-50051100D01*
X177160857Y-50064994D01*
X177265005Y-50169142D01*
X177278899Y-50185700D01*
X177363390Y-50306366D01*
X177374197Y-50325085D01*
X177436446Y-50458579D01*
X177443839Y-50478889D01*
X177481963Y-50621169D01*
X177485716Y-50642455D01*
X177499264Y-50797300D01*
X177499500Y-50802706D01*
X177499500Y-73656951D01*
X177499201Y-73663032D01*
X177486949Y-73787431D01*
X177482207Y-73811272D01*
X177448580Y-73922125D01*
X177439277Y-73944583D01*
X177384674Y-74046739D01*
X177371169Y-74066951D01*
X177297682Y-74156494D01*
X177280494Y-74173682D01*
X177190951Y-74247169D01*
X177170739Y-74260674D01*
X177068583Y-74315277D01*
X177046125Y-74324580D01*
X176935272Y-74358207D01*
X176911431Y-74362949D01*
X176787032Y-74375201D01*
X176780951Y-74375500D01*
X125225049Y-74375500D01*
X125218968Y-74375201D01*
X125094568Y-74362949D01*
X125070727Y-74358207D01*
X124959874Y-74324580D01*
X124937416Y-74315277D01*
X124835260Y-74260674D01*
X124815048Y-74247169D01*
X124725505Y-74173682D01*
X124708317Y-74156494D01*
X124634830Y-74066951D01*
X124621325Y-74046739D01*
X124575589Y-73961173D01*
X124566721Y-73944581D01*
X124557419Y-73922125D01*
X124523790Y-73811266D01*
X124519051Y-73787436D01*
X124506799Y-73663031D01*
X124506500Y-73656951D01*
X124506500Y-73612405D01*
X124506500Y-68580000D01*
X125136341Y-68580000D01*
X125156936Y-68815403D01*
X125156938Y-68815413D01*
X125218094Y-69043655D01*
X125218096Y-69043659D01*
X125218097Y-69043663D01*
X125317965Y-69257829D01*
X125317965Y-69257830D01*
X125317967Y-69257834D01*
X125389222Y-69359596D01*
X125453505Y-69451401D01*
X125620599Y-69618495D01*
X125717384Y-69686264D01*
X125814165Y-69754032D01*
X125814167Y-69754033D01*
X125814170Y-69754035D01*
X126028337Y-69853903D01*
X126256592Y-69915063D01*
X126433034Y-69930500D01*
X126491999Y-69935659D01*
X126492000Y-69935659D01*
X126492001Y-69935659D01*
X126550966Y-69930500D01*
X126727408Y-69915063D01*
X126955663Y-69853903D01*
X127169830Y-69754035D01*
X127363401Y-69618495D01*
X127485329Y-69496566D01*
X127546648Y-69463084D01*
X127616340Y-69468068D01*
X127672274Y-69509939D01*
X127689189Y-69540917D01*
X127738202Y-69672328D01*
X127738206Y-69672335D01*
X127824452Y-69787544D01*
X127824455Y-69787547D01*
X127939664Y-69873793D01*
X127939671Y-69873797D01*
X128074517Y-69924091D01*
X128074516Y-69924091D01*
X128081444Y-69924835D01*
X128134127Y-69930500D01*
X129335955Y-69930499D01*
X129402994Y-69950184D01*
X129423636Y-69966818D01*
X133191648Y-73734830D01*
X133194215Y-73737556D01*
X133235530Y-73784191D01*
X133235535Y-73784196D01*
X133240222Y-73787431D01*
X133286818Y-73819593D01*
X133289798Y-73821786D01*
X133338876Y-73860236D01*
X133348208Y-73864436D01*
X133367744Y-73875453D01*
X133376173Y-73881271D01*
X133376176Y-73881272D01*
X133434426Y-73903363D01*
X133437881Y-73904793D01*
X133494710Y-73930371D01*
X133503334Y-73931951D01*
X133504763Y-73932213D01*
X133526397Y-73938244D01*
X133535956Y-73941870D01*
X133597808Y-73949380D01*
X133601512Y-73949944D01*
X133631777Y-73955489D01*
X133662800Y-73961175D01*
X133720875Y-73957662D01*
X133724994Y-73957413D01*
X133728739Y-73957300D01*
X148465272Y-73957300D01*
X148469016Y-73957413D01*
X148531198Y-73961174D01*
X148531198Y-73961173D01*
X148531200Y-73961174D01*
X148592472Y-73949944D01*
X148596162Y-73949383D01*
X148658043Y-73941870D01*
X148667604Y-73938243D01*
X148689234Y-73932212D01*
X148699290Y-73930370D01*
X148756115Y-73904794D01*
X148759549Y-73903372D01*
X148817827Y-73881271D01*
X148826238Y-73875464D01*
X148845792Y-73864435D01*
X148855125Y-73860236D01*
X148904210Y-73821778D01*
X148907188Y-73819587D01*
X148958466Y-73784195D01*
X148999784Y-73737555D01*
X149002318Y-73734862D01*
X150004575Y-72732605D01*
X150065896Y-72699122D01*
X150124350Y-72700514D01*
X150137592Y-72704063D01*
X150325918Y-72720539D01*
X150372999Y-72724659D01*
X150373000Y-72724659D01*
X150373001Y-72724659D01*
X150412234Y-72721226D01*
X150608408Y-72704063D01*
X150836663Y-72642903D01*
X151050830Y-72543035D01*
X151244401Y-72407495D01*
X151411495Y-72240401D01*
X151541424Y-72054842D01*
X151596002Y-72011217D01*
X151665500Y-72004023D01*
X151727855Y-72035546D01*
X151744575Y-72054842D01*
X151874500Y-72240395D01*
X151874505Y-72240401D01*
X152041599Y-72407495D01*
X152109530Y-72455061D01*
X152235165Y-72543032D01*
X152235167Y-72543033D01*
X152235170Y-72543035D01*
X152449337Y-72642903D01*
X152677592Y-72704063D01*
X152865918Y-72720539D01*
X152912999Y-72724659D01*
X152913000Y-72724659D01*
X152913001Y-72724659D01*
X152952234Y-72721226D01*
X153148408Y-72704063D01*
X153376663Y-72642903D01*
X153590830Y-72543035D01*
X153784401Y-72407495D01*
X153951495Y-72240401D01*
X154087035Y-72046830D01*
X154186903Y-71832663D01*
X154248063Y-71604408D01*
X154268659Y-71369000D01*
X154248063Y-71133592D01*
X154186903Y-70905337D01*
X154087035Y-70691171D01*
X154081424Y-70683158D01*
X153951496Y-70497600D01*
X153893519Y-70439623D01*
X153829567Y-70375671D01*
X153796084Y-70314351D01*
X153801068Y-70244659D01*
X153842939Y-70188725D01*
X153873915Y-70171810D01*
X154005331Y-70122796D01*
X154120546Y-70036546D01*
X154206796Y-69921331D01*
X154257091Y-69786483D01*
X154263500Y-69726873D01*
X154263499Y-69631509D01*
X154283183Y-69564472D01*
X154335986Y-69518716D01*
X154343499Y-69515579D01*
X154348619Y-69513637D01*
X154370234Y-69507612D01*
X154380290Y-69505770D01*
X154437115Y-69480194D01*
X154440549Y-69478772D01*
X154498827Y-69456671D01*
X154507238Y-69450864D01*
X154526792Y-69439835D01*
X154536125Y-69435636D01*
X154585210Y-69397178D01*
X154588188Y-69394987D01*
X154639466Y-69359595D01*
X154680784Y-69312955D01*
X154683318Y-69310262D01*
X157707253Y-66286327D01*
X157709965Y-66283775D01*
X157756593Y-66242468D01*
X157756593Y-66242467D01*
X157756595Y-66242466D01*
X157792002Y-66191168D01*
X157794181Y-66188207D01*
X157810796Y-66167000D01*
X159647940Y-66167000D01*
X159667726Y-66355256D01*
X159667727Y-66355259D01*
X159726218Y-66535277D01*
X159726221Y-66535284D01*
X159820867Y-66699216D01*
X159915615Y-66804444D01*
X159947529Y-66839888D01*
X160100665Y-66951148D01*
X160100670Y-66951151D01*
X160273592Y-67028142D01*
X160273597Y-67028144D01*
X160458754Y-67067500D01*
X160458755Y-67067500D01*
X160648044Y-67067500D01*
X160648046Y-67067500D01*
X160833203Y-67028144D01*
X161006130Y-66951151D01*
X161159271Y-66839888D01*
X161285933Y-66699216D01*
X161380579Y-66535284D01*
X161439074Y-66355256D01*
X161458860Y-66167000D01*
X161439074Y-65978744D01*
X161380579Y-65798716D01*
X161285933Y-65634784D01*
X161212750Y-65553506D01*
X161182520Y-65490515D01*
X161180900Y-65470534D01*
X161180900Y-61499879D01*
X161200585Y-61432840D01*
X161217214Y-61412203D01*
X161754659Y-60874757D01*
X161815983Y-60841273D01*
X161885675Y-60846257D01*
X161941608Y-60888129D01*
X161966025Y-60953593D01*
X161966193Y-60958318D01*
X161986936Y-61195403D01*
X161986938Y-61195413D01*
X162048094Y-61423655D01*
X162048096Y-61423659D01*
X162048097Y-61423663D01*
X162127992Y-61594998D01*
X162147965Y-61637830D01*
X162147967Y-61637834D01*
X162250139Y-61783750D01*
X162283504Y-61831400D01*
X162283506Y-61831402D01*
X162450597Y-61998493D01*
X162450603Y-61998498D01*
X162636158Y-62128425D01*
X162679783Y-62183002D01*
X162686977Y-62252500D01*
X162655454Y-62314855D01*
X162636158Y-62331575D01*
X162450597Y-62461505D01*
X162283505Y-62628597D01*
X162147965Y-62822169D01*
X162147964Y-62822171D01*
X162048098Y-63036335D01*
X162048094Y-63036344D01*
X161986938Y-63264586D01*
X161986936Y-63264596D01*
X161966341Y-63499999D01*
X161966341Y-63500000D01*
X161986936Y-63735403D01*
X161986938Y-63735413D01*
X162048094Y-63963655D01*
X162048096Y-63963659D01*
X162048097Y-63963663D01*
X162123875Y-64126169D01*
X162147965Y-64177830D01*
X162147967Y-64177834D01*
X162237174Y-64305234D01*
X162283504Y-64371400D01*
X162283506Y-64371402D01*
X162450597Y-64538493D01*
X162450603Y-64538498D01*
X162636158Y-64668425D01*
X162679783Y-64723002D01*
X162686977Y-64792500D01*
X162655454Y-64854855D01*
X162636158Y-64871575D01*
X162450597Y-65001505D01*
X162283505Y-65168597D01*
X162147965Y-65362169D01*
X162147964Y-65362171D01*
X162048098Y-65576335D01*
X162048094Y-65576344D01*
X161986938Y-65804586D01*
X161986936Y-65804596D01*
X161966341Y-66039999D01*
X161966341Y-66040000D01*
X161986936Y-66275403D01*
X161986938Y-66275413D01*
X162048094Y-66503655D01*
X162048096Y-66503659D01*
X162048097Y-66503663D01*
X162140983Y-66702857D01*
X162147965Y-66717830D01*
X162147967Y-66717834D01*
X162228071Y-66832233D01*
X162269298Y-66891112D01*
X162283501Y-66911395D01*
X162283506Y-66911402D01*
X162450597Y-67078493D01*
X162450603Y-67078498D01*
X162636158Y-67208425D01*
X162679783Y-67263002D01*
X162686977Y-67332500D01*
X162655454Y-67394855D01*
X162636158Y-67411575D01*
X162450597Y-67541505D01*
X162283505Y-67708597D01*
X162147965Y-67902169D01*
X162147964Y-67902171D01*
X162048098Y-68116335D01*
X162048094Y-68116344D01*
X161986938Y-68344586D01*
X161986936Y-68344596D01*
X161966341Y-68579999D01*
X161966341Y-68580000D01*
X161986936Y-68815403D01*
X161986938Y-68815413D01*
X162048094Y-69043655D01*
X162048096Y-69043659D01*
X162048097Y-69043663D01*
X162147964Y-69257829D01*
X162147965Y-69257830D01*
X162147967Y-69257834D01*
X162219222Y-69359596D01*
X162275401Y-69439828D01*
X162283501Y-69451395D01*
X162283506Y-69451402D01*
X162450597Y-69618493D01*
X162450603Y-69618498D01*
X162636158Y-69748425D01*
X162679783Y-69803002D01*
X162686977Y-69872500D01*
X162655454Y-69934855D01*
X162636158Y-69951575D01*
X162450597Y-70081505D01*
X162283505Y-70248597D01*
X162147965Y-70442169D01*
X162147964Y-70442171D01*
X162048098Y-70656335D01*
X162048094Y-70656344D01*
X161986938Y-70884586D01*
X161986936Y-70884596D01*
X161966341Y-71119999D01*
X161966341Y-71120000D01*
X161986936Y-71355403D01*
X161986938Y-71355413D01*
X162048094Y-71583655D01*
X162048096Y-71583659D01*
X162048097Y-71583663D01*
X162123875Y-71746169D01*
X162147965Y-71797830D01*
X162147967Y-71797834D01*
X162178215Y-71841032D01*
X162283505Y-71991401D01*
X162450599Y-72158495D01*
X162547384Y-72226265D01*
X162644165Y-72294032D01*
X162644167Y-72294033D01*
X162644170Y-72294035D01*
X162858337Y-72393903D01*
X163086592Y-72455063D01*
X163274918Y-72471539D01*
X163321999Y-72475659D01*
X163322000Y-72475659D01*
X163322001Y-72475659D01*
X163361234Y-72472226D01*
X163557408Y-72455063D01*
X163785663Y-72393903D01*
X163999830Y-72294035D01*
X164193401Y-72158495D01*
X164360495Y-71991401D01*
X164494252Y-71800375D01*
X164548829Y-71756752D01*
X164595827Y-71747500D01*
X170097033Y-71747500D01*
X170112681Y-71749227D01*
X170112708Y-71748946D01*
X170120475Y-71749680D01*
X170120476Y-71749679D01*
X170120477Y-71749680D01*
X170189860Y-71747500D01*
X170219476Y-71747500D01*
X170226378Y-71746627D01*
X170232190Y-71746169D01*
X170278943Y-71744701D01*
X170298272Y-71739084D01*
X170317328Y-71735137D01*
X170337293Y-71732616D01*
X170380770Y-71715401D01*
X170386276Y-71713516D01*
X170431191Y-71700468D01*
X170448515Y-71690221D01*
X170465983Y-71681663D01*
X170484703Y-71674253D01*
X170522542Y-71646759D01*
X170527391Y-71643574D01*
X170567656Y-71619763D01*
X170581897Y-71605520D01*
X170596678Y-71592897D01*
X170612967Y-71581063D01*
X170612969Y-71581059D01*
X170612971Y-71581059D01*
X170624845Y-71566703D01*
X170642776Y-71545028D01*
X170646689Y-71540728D01*
X172266584Y-69920833D01*
X172327905Y-69887350D01*
X172386356Y-69888741D01*
X172428107Y-69899928D01*
X172484592Y-69915063D01*
X172661034Y-69930500D01*
X172719999Y-69935659D01*
X172720000Y-69935659D01*
X172720001Y-69935659D01*
X172778966Y-69930500D01*
X172955408Y-69915063D01*
X173183663Y-69853903D01*
X173397830Y-69754035D01*
X173591401Y-69618495D01*
X173758495Y-69451401D01*
X173894035Y-69257830D01*
X173993903Y-69043663D01*
X174055063Y-68815408D01*
X174075659Y-68580000D01*
X174055063Y-68344592D01*
X173993903Y-68116337D01*
X173894035Y-67902171D01*
X173885958Y-67890635D01*
X173758494Y-67708597D01*
X173591402Y-67541506D01*
X173591401Y-67541505D01*
X173420815Y-67422059D01*
X173405841Y-67411574D01*
X173362216Y-67356997D01*
X173355024Y-67287498D01*
X173386546Y-67225144D01*
X173405836Y-67208428D01*
X173591401Y-67078495D01*
X173758495Y-66911401D01*
X173894035Y-66717830D01*
X173993903Y-66503663D01*
X174055063Y-66275408D01*
X174075659Y-66040000D01*
X174074626Y-66028198D01*
X174061352Y-65876472D01*
X174055063Y-65804592D01*
X173993903Y-65576337D01*
X173894035Y-65362171D01*
X173859699Y-65313133D01*
X173758494Y-65168597D01*
X173591402Y-65001506D01*
X173591396Y-65001501D01*
X173405842Y-64871575D01*
X173362217Y-64816998D01*
X173355023Y-64747500D01*
X173386546Y-64685145D01*
X173405842Y-64668425D01*
X173461532Y-64629430D01*
X173591401Y-64538495D01*
X173758495Y-64371401D01*
X173894035Y-64177830D01*
X173993903Y-63963663D01*
X174055063Y-63735408D01*
X174075659Y-63500000D01*
X174055063Y-63264592D01*
X173993903Y-63036337D01*
X173894035Y-62822171D01*
X173888425Y-62814158D01*
X173758494Y-62628597D01*
X173591402Y-62461506D01*
X173591401Y-62461505D01*
X173468800Y-62375659D01*
X173405841Y-62331574D01*
X173362216Y-62276997D01*
X173355024Y-62207498D01*
X173386546Y-62145144D01*
X173405836Y-62128428D01*
X173591401Y-61998495D01*
X173758495Y-61831401D01*
X173894035Y-61637830D01*
X173993903Y-61423663D01*
X174055063Y-61195408D01*
X174075659Y-60960000D01*
X174075098Y-60953593D01*
X174066004Y-60849645D01*
X174055063Y-60724592D01*
X173993903Y-60496337D01*
X173894035Y-60282171D01*
X173888425Y-60274158D01*
X173758494Y-60088597D01*
X173591402Y-59921506D01*
X173591395Y-59921501D01*
X173397834Y-59785967D01*
X173397830Y-59785965D01*
X173397829Y-59785964D01*
X173183663Y-59686097D01*
X173183659Y-59686096D01*
X173183655Y-59686094D01*
X172955413Y-59624938D01*
X172955403Y-59624936D01*
X172720001Y-59604341D01*
X172719999Y-59604341D01*
X172484596Y-59624936D01*
X172484586Y-59624938D01*
X172256344Y-59686094D01*
X172256335Y-59686098D01*
X172042171Y-59785964D01*
X172042169Y-59785965D01*
X171848600Y-59921503D01*
X171726673Y-60043430D01*
X171665350Y-60076914D01*
X171595658Y-60071930D01*
X171539725Y-60030058D01*
X171522810Y-59999081D01*
X171473797Y-59867671D01*
X171473793Y-59867664D01*
X171387547Y-59752455D01*
X171387544Y-59752452D01*
X171272335Y-59666206D01*
X171272328Y-59666202D01*
X171137482Y-59615908D01*
X171137483Y-59615908D01*
X171077883Y-59609501D01*
X171077881Y-59609500D01*
X171077873Y-59609500D01*
X171077865Y-59609500D01*
X169768281Y-59609500D01*
X169701242Y-59589815D01*
X169680600Y-59573181D01*
X164651486Y-54544067D01*
X164618001Y-54482744D01*
X164622984Y-54413057D01*
X164666091Y-54297483D01*
X164672500Y-54237873D01*
X164672500Y-54237844D01*
X168830000Y-54237844D01*
X168836401Y-54297372D01*
X168836403Y-54297379D01*
X168886645Y-54432086D01*
X168886649Y-54432093D01*
X168972809Y-54547187D01*
X168972812Y-54547190D01*
X169087906Y-54633350D01*
X169087913Y-54633354D01*
X169222620Y-54683596D01*
X169222627Y-54683598D01*
X169282155Y-54689999D01*
X169282172Y-54690000D01*
X169930000Y-54690000D01*
X169930000Y-53775501D01*
X170037685Y-53824680D01*
X170144237Y-53840000D01*
X170215763Y-53840000D01*
X170322315Y-53824680D01*
X170430000Y-53775501D01*
X170430000Y-54690000D01*
X171077828Y-54690000D01*
X171077844Y-54689999D01*
X171137372Y-54683598D01*
X171137379Y-54683596D01*
X171272086Y-54633354D01*
X171272093Y-54633350D01*
X171387187Y-54547190D01*
X171387190Y-54547187D01*
X171473350Y-54432093D01*
X171473354Y-54432086D01*
X171522614Y-54300013D01*
X171564485Y-54244079D01*
X171629949Y-54219662D01*
X171698222Y-54234513D01*
X171726477Y-54255665D01*
X171848917Y-54378105D01*
X172042421Y-54513600D01*
X172256507Y-54613429D01*
X172256516Y-54613433D01*
X172470000Y-54670634D01*
X172470000Y-53775501D01*
X172577685Y-53824680D01*
X172684237Y-53840000D01*
X172755763Y-53840000D01*
X172862315Y-53824680D01*
X172970000Y-53775501D01*
X172970000Y-54670633D01*
X173183483Y-54613433D01*
X173183492Y-54613429D01*
X173397578Y-54513600D01*
X173591082Y-54378105D01*
X173758105Y-54211082D01*
X173893600Y-54017578D01*
X173993429Y-53803492D01*
X173993432Y-53803486D01*
X174050636Y-53590000D01*
X173153686Y-53590000D01*
X173179493Y-53549844D01*
X173220000Y-53411889D01*
X173220000Y-53268111D01*
X173179493Y-53130156D01*
X173153686Y-53090000D01*
X174050636Y-53090000D01*
X174050635Y-53089999D01*
X173993432Y-52876513D01*
X173993429Y-52876507D01*
X173893600Y-52662422D01*
X173893599Y-52662420D01*
X173758113Y-52468926D01*
X173758108Y-52468920D01*
X173591082Y-52301894D01*
X173397578Y-52166399D01*
X173183492Y-52066570D01*
X173183486Y-52066567D01*
X172970000Y-52009364D01*
X172970000Y-52904498D01*
X172862315Y-52855320D01*
X172755763Y-52840000D01*
X172684237Y-52840000D01*
X172577685Y-52855320D01*
X172470000Y-52904498D01*
X172470000Y-52009364D01*
X172469999Y-52009364D01*
X172256513Y-52066567D01*
X172256507Y-52066570D01*
X172042422Y-52166399D01*
X172042420Y-52166400D01*
X171848926Y-52301886D01*
X171726477Y-52424335D01*
X171665154Y-52457819D01*
X171595462Y-52452835D01*
X171539529Y-52410963D01*
X171522614Y-52379986D01*
X171473354Y-52247913D01*
X171473350Y-52247906D01*
X171387190Y-52132812D01*
X171387187Y-52132809D01*
X171272093Y-52046649D01*
X171272086Y-52046645D01*
X171137379Y-51996403D01*
X171137372Y-51996401D01*
X171077844Y-51990000D01*
X170430000Y-51990000D01*
X170430000Y-52904498D01*
X170322315Y-52855320D01*
X170215763Y-52840000D01*
X170144237Y-52840000D01*
X170037685Y-52855320D01*
X169930000Y-52904498D01*
X169930000Y-51990000D01*
X169282155Y-51990000D01*
X169222627Y-51996401D01*
X169222620Y-51996403D01*
X169087913Y-52046645D01*
X169087906Y-52046649D01*
X168972812Y-52132809D01*
X168972809Y-52132812D01*
X168886649Y-52247906D01*
X168886645Y-52247913D01*
X168836403Y-52382620D01*
X168836401Y-52382627D01*
X168830000Y-52442155D01*
X168830000Y-53090000D01*
X169746314Y-53090000D01*
X169720507Y-53130156D01*
X169680000Y-53268111D01*
X169680000Y-53411889D01*
X169720507Y-53549844D01*
X169746314Y-53590000D01*
X168830000Y-53590000D01*
X168830000Y-54237844D01*
X164672500Y-54237844D01*
X164672499Y-52442128D01*
X164666091Y-52382517D01*
X164615884Y-52247906D01*
X164615797Y-52247671D01*
X164615793Y-52247664D01*
X164529547Y-52132455D01*
X164529544Y-52132452D01*
X164414335Y-52046206D01*
X164414328Y-52046202D01*
X164279482Y-51995908D01*
X164279483Y-51995908D01*
X164219883Y-51989501D01*
X164219881Y-51989500D01*
X164219873Y-51989500D01*
X164219864Y-51989500D01*
X162424129Y-51989500D01*
X162424123Y-51989501D01*
X162364516Y-51995908D01*
X162229671Y-52046202D01*
X162229664Y-52046206D01*
X162114455Y-52132452D01*
X162114452Y-52132455D01*
X162028206Y-52247664D01*
X162028202Y-52247671D01*
X161977908Y-52382517D01*
X161972872Y-52429364D01*
X161971501Y-52442123D01*
X161971500Y-52442135D01*
X161971500Y-54237870D01*
X161971501Y-54237876D01*
X161977908Y-54297483D01*
X162028202Y-54432328D01*
X162028206Y-54432335D01*
X162114452Y-54547544D01*
X162114455Y-54547547D01*
X162229664Y-54633793D01*
X162229671Y-54633797D01*
X162361081Y-54682810D01*
X162417015Y-54724681D01*
X162441432Y-54790145D01*
X162426580Y-54858418D01*
X162405430Y-54886673D01*
X162283503Y-55008600D01*
X162147965Y-55202169D01*
X162147964Y-55202171D01*
X162048098Y-55416335D01*
X162048094Y-55416344D01*
X161986938Y-55644586D01*
X161986936Y-55644596D01*
X161966341Y-55879999D01*
X161966341Y-55880000D01*
X161986936Y-56115403D01*
X161986938Y-56115413D01*
X162048094Y-56343655D01*
X162048096Y-56343659D01*
X162048097Y-56343663D01*
X162080939Y-56414092D01*
X162147965Y-56557830D01*
X162147967Y-56557834D01*
X162256281Y-56712521D01*
X162283501Y-56751396D01*
X162283506Y-56751402D01*
X162450597Y-56918493D01*
X162450603Y-56918498D01*
X162636158Y-57048425D01*
X162679783Y-57103002D01*
X162686977Y-57172500D01*
X162655454Y-57234855D01*
X162636158Y-57251575D01*
X162450597Y-57381505D01*
X162283505Y-57548597D01*
X162147965Y-57742169D01*
X162147964Y-57742171D01*
X162048098Y-57956335D01*
X162048094Y-57956344D01*
X161986938Y-58184586D01*
X161986936Y-58184596D01*
X161966341Y-58419999D01*
X161966341Y-58420000D01*
X161986936Y-58655403D01*
X161986938Y-58655413D01*
X162013258Y-58753641D01*
X162011595Y-58823491D01*
X161981164Y-58873415D01*
X160168353Y-60686226D01*
X160156069Y-60696069D01*
X160156249Y-60696287D01*
X160150238Y-60701259D01*
X160102723Y-60751857D01*
X160081775Y-60772805D01*
X160077506Y-60778309D01*
X160073715Y-60782747D01*
X160041708Y-60816830D01*
X160041705Y-60816834D01*
X160032006Y-60834477D01*
X160021328Y-60850733D01*
X160008994Y-60866634D01*
X160008989Y-60866642D01*
X159990425Y-60909543D01*
X159987854Y-60914791D01*
X159965327Y-60955767D01*
X159960320Y-60975268D01*
X159954021Y-60993664D01*
X159947293Y-61009212D01*
X159946025Y-61012144D01*
X159946024Y-61012146D01*
X159938712Y-61058316D01*
X159937527Y-61064038D01*
X159925900Y-61109323D01*
X159925900Y-61129458D01*
X159924373Y-61148857D01*
X159921225Y-61168731D01*
X159925625Y-61215277D01*
X159925900Y-61221115D01*
X159925900Y-65470534D01*
X159906215Y-65537573D01*
X159894050Y-65553506D01*
X159820866Y-65634785D01*
X159726221Y-65798715D01*
X159726218Y-65798722D01*
X159667727Y-65978740D01*
X159667726Y-65978744D01*
X159647940Y-66167000D01*
X157810796Y-66167000D01*
X157832636Y-66139125D01*
X157836831Y-66129802D01*
X157847864Y-66110238D01*
X157853671Y-66101827D01*
X157875772Y-66043549D01*
X157877199Y-66040106D01*
X157877248Y-66039999D01*
X157902770Y-65983290D01*
X157904612Y-65973232D01*
X157910640Y-65951612D01*
X157914270Y-65942043D01*
X157921782Y-65880176D01*
X157922346Y-65876472D01*
X157930833Y-65830156D01*
X157933574Y-65815201D01*
X157931994Y-65789078D01*
X157947595Y-65720973D01*
X157968087Y-65693910D01*
X157992000Y-65669997D01*
X157992000Y-65020000D01*
X158492000Y-65020000D01*
X158492000Y-65669999D01*
X158573581Y-65669999D01*
X158644102Y-65663591D01*
X158644107Y-65663590D01*
X158806396Y-65613018D01*
X158951877Y-65525072D01*
X159072072Y-65404877D01*
X159160019Y-65259395D01*
X159210590Y-65097106D01*
X159217000Y-65026572D01*
X159217000Y-65020000D01*
X158492000Y-65020000D01*
X157992000Y-65020000D01*
X157992000Y-64644000D01*
X158011685Y-64576961D01*
X158064489Y-64531206D01*
X158116000Y-64520000D01*
X159216999Y-64520000D01*
X159216999Y-64513417D01*
X159210591Y-64442897D01*
X159210590Y-64442892D01*
X159160018Y-64280603D01*
X159072072Y-64135122D01*
X158969984Y-64033034D01*
X158936499Y-63971711D01*
X158941483Y-63902019D01*
X158969983Y-63857673D01*
X159072472Y-63755185D01*
X159160478Y-63609606D01*
X159211086Y-63447196D01*
X159217500Y-63376616D01*
X159217500Y-62863384D01*
X159211086Y-62792804D01*
X159160478Y-62630394D01*
X159072472Y-62484815D01*
X159072470Y-62484813D01*
X159072469Y-62484811D01*
X158952188Y-62364530D01*
X158897672Y-62331574D01*
X158806606Y-62276522D01*
X158644196Y-62225914D01*
X158644194Y-62225913D01*
X158644192Y-62225913D01*
X158594778Y-62221423D01*
X158573616Y-62219500D01*
X158573613Y-62219500D01*
X158244360Y-62219500D01*
X158177321Y-62199815D01*
X158156679Y-62183181D01*
X157971991Y-61998493D01*
X157760117Y-61786619D01*
X157754773Y-61780524D01*
X157738627Y-61759483D01*
X157733022Y-61752178D01*
X157733019Y-61752176D01*
X157733018Y-61752174D01*
X157704588Y-61730359D01*
X157691416Y-61720252D01*
X157607247Y-61655667D01*
X157607243Y-61655665D01*
X157607244Y-61655665D01*
X157460782Y-61594998D01*
X157458780Y-61594600D01*
X157456747Y-61594467D01*
X157382550Y-61584699D01*
X157339438Y-61579023D01*
X157339423Y-61579021D01*
X157309912Y-61575137D01*
X157303600Y-61574306D01*
X157303599Y-61574306D01*
X157303598Y-61574306D01*
X157268180Y-61578969D01*
X157260079Y-61579500D01*
X156729515Y-61579500D01*
X156662476Y-61559815D01*
X156616721Y-61507011D01*
X156606195Y-61468465D01*
X156587674Y-61292244D01*
X156529179Y-61112216D01*
X156480699Y-61028247D01*
X156464227Y-60960349D01*
X156480699Y-60904251D01*
X156529179Y-60820284D01*
X156587674Y-60640256D01*
X156607460Y-60452000D01*
X156587674Y-60263744D01*
X156565981Y-60196980D01*
X156563986Y-60127139D01*
X156591759Y-60075693D01*
X156688533Y-59968216D01*
X156783179Y-59804284D01*
X156841674Y-59624256D01*
X156861460Y-59436000D01*
X156841674Y-59247744D01*
X156783179Y-59067716D01*
X156688533Y-58903784D01*
X156561871Y-58763112D01*
X156561870Y-58763111D01*
X156408734Y-58651851D01*
X156408729Y-58651848D01*
X156235807Y-58574857D01*
X156235802Y-58574855D01*
X156090000Y-58543865D01*
X156050646Y-58535500D01*
X155861354Y-58535500D01*
X155828897Y-58542398D01*
X155676197Y-58574855D01*
X155676192Y-58574857D01*
X155503270Y-58651848D01*
X155503265Y-58651851D01*
X155350129Y-58763111D01*
X155223466Y-58903785D01*
X155128821Y-59067715D01*
X155128819Y-59067719D01*
X155115801Y-59107786D01*
X155076363Y-59165461D01*
X155012004Y-59192659D01*
X154943158Y-59180744D01*
X154905720Y-59152439D01*
X154856553Y-59097834D01*
X154783871Y-59017112D01*
X154778915Y-59013511D01*
X154630734Y-58905851D01*
X154630729Y-58905848D01*
X154457807Y-58828857D01*
X154457802Y-58828855D01*
X154312000Y-58797865D01*
X154272646Y-58789500D01*
X154083354Y-58789500D01*
X154050897Y-58796398D01*
X153898197Y-58828855D01*
X153898192Y-58828857D01*
X153725270Y-58905848D01*
X153725265Y-58905851D01*
X153572129Y-59017111D01*
X153445466Y-59157785D01*
X153350821Y-59321715D01*
X153350818Y-59321722D01*
X153292327Y-59501740D01*
X153292326Y-59501744D01*
X153276254Y-59654662D01*
X153272540Y-59690000D01*
X153276614Y-59728766D01*
X153264044Y-59797496D01*
X153240975Y-59829407D01*
X153118657Y-59951726D01*
X153057334Y-59985211D01*
X153015400Y-59984840D01*
X153015196Y-59986738D01*
X152947883Y-59979501D01*
X152947881Y-59979500D01*
X152947873Y-59979500D01*
X152947864Y-59979500D01*
X151852129Y-59979500D01*
X151852123Y-59979501D01*
X151792516Y-59985908D01*
X151657671Y-60036202D01*
X151657669Y-60036203D01*
X151574311Y-60098606D01*
X151508847Y-60123023D01*
X151440574Y-60108172D01*
X151425689Y-60098606D01*
X151412321Y-60088599D01*
X151342331Y-60036204D01*
X151342330Y-60036203D01*
X151342328Y-60036202D01*
X151207482Y-59985908D01*
X151207483Y-59985908D01*
X151147883Y-59979501D01*
X151147881Y-59979500D01*
X151147873Y-59979500D01*
X151147865Y-59979500D01*
X150227903Y-59979500D01*
X150160864Y-59959815D01*
X150115109Y-59907011D01*
X150105704Y-59849417D01*
X150104542Y-59849417D01*
X150104542Y-59842920D01*
X150103122Y-59829407D01*
X150084756Y-59654662D01*
X150028959Y-59482937D01*
X150026263Y-59474640D01*
X150026262Y-59474639D01*
X150026261Y-59474634D01*
X149931615Y-59310702D01*
X149804953Y-59170030D01*
X149804952Y-59170029D01*
X149651816Y-59058769D01*
X149651811Y-59058766D01*
X149478889Y-58981775D01*
X149478884Y-58981773D01*
X149328204Y-58949746D01*
X149293728Y-58942418D01*
X149283769Y-58942418D01*
X149216730Y-58922733D01*
X149170975Y-58869929D01*
X149161031Y-58800771D01*
X149165838Y-58780100D01*
X149174435Y-58753641D01*
X149221674Y-58608256D01*
X149241460Y-58420000D01*
X149221674Y-58231744D01*
X149163179Y-58051716D01*
X149068533Y-57887784D01*
X148941871Y-57747112D01*
X148941870Y-57747111D01*
X148788734Y-57635851D01*
X148788729Y-57635848D01*
X148615807Y-57558857D01*
X148615802Y-57558855D01*
X148470001Y-57527865D01*
X148430646Y-57519500D01*
X148241354Y-57519500D01*
X148208897Y-57526398D01*
X148056197Y-57558855D01*
X148056192Y-57558857D01*
X147883270Y-57635848D01*
X147883265Y-57635851D01*
X147730135Y-57747106D01*
X147730132Y-57747108D01*
X147728175Y-57749281D01*
X147726200Y-57751474D01*
X147666714Y-57788121D01*
X147634053Y-57792500D01*
X139782965Y-57792500D01*
X139767314Y-57790772D01*
X139767288Y-57791054D01*
X139759525Y-57790319D01*
X139690154Y-57792500D01*
X139660521Y-57792500D01*
X139653607Y-57793373D01*
X139647790Y-57793830D01*
X139601058Y-57795299D01*
X139601054Y-57795300D01*
X139581722Y-57800916D01*
X139562682Y-57804859D01*
X139542708Y-57807383D01*
X139542701Y-57807385D01*
X139499239Y-57824592D01*
X139493712Y-57826485D01*
X139448809Y-57839531D01*
X139448808Y-57839531D01*
X139431474Y-57849782D01*
X139414012Y-57858336D01*
X139395300Y-57865745D01*
X139395295Y-57865748D01*
X139357473Y-57893226D01*
X139352591Y-57896433D01*
X139312341Y-57920238D01*
X139298107Y-57934472D01*
X139283318Y-57947104D01*
X139267032Y-57958937D01*
X139237227Y-57994963D01*
X139233295Y-57999285D01*
X138727340Y-58505239D01*
X138666017Y-58538724D01*
X138596325Y-58533740D01*
X138540392Y-58491868D01*
X138515975Y-58426404D01*
X138515806Y-58421683D01*
X138495063Y-58184596D01*
X138495063Y-58184592D01*
X138433903Y-57956337D01*
X138334035Y-57742171D01*
X138328425Y-57734158D01*
X138198494Y-57548597D01*
X138031402Y-57381506D01*
X138031401Y-57381505D01*
X137845842Y-57251575D01*
X137845841Y-57251574D01*
X137802216Y-57196997D01*
X137795024Y-57127498D01*
X137826546Y-57065144D01*
X137845836Y-57048428D01*
X138031401Y-56918495D01*
X138198495Y-56751401D01*
X138334035Y-56557830D01*
X138433903Y-56343663D01*
X138495063Y-56115408D01*
X138515659Y-55880000D01*
X138495063Y-55644592D01*
X138433903Y-55416337D01*
X138334035Y-55202171D01*
X138328424Y-55194158D01*
X138198496Y-55008600D01*
X138157083Y-54967187D01*
X138076567Y-54886671D01*
X138043084Y-54825351D01*
X138048068Y-54755659D01*
X138089939Y-54699725D01*
X138120915Y-54682810D01*
X138187854Y-54657844D01*
X148510000Y-54657844D01*
X148516401Y-54717372D01*
X148516403Y-54717379D01*
X148566645Y-54852086D01*
X148566649Y-54852093D01*
X148652809Y-54967187D01*
X148652812Y-54967190D01*
X148767906Y-55053350D01*
X148767913Y-55053354D01*
X148902620Y-55103596D01*
X148902627Y-55103598D01*
X148962155Y-55109999D01*
X148962172Y-55110000D01*
X149610000Y-55110000D01*
X149610000Y-54195501D01*
X149717685Y-54244680D01*
X149824237Y-54260000D01*
X149895763Y-54260000D01*
X150002315Y-54244680D01*
X150110000Y-54195501D01*
X150110000Y-55110000D01*
X150757828Y-55110000D01*
X150757844Y-55109999D01*
X150817372Y-55103598D01*
X150817379Y-55103596D01*
X150952086Y-55053354D01*
X150952093Y-55053350D01*
X151067187Y-54967190D01*
X151067190Y-54967187D01*
X151153350Y-54852093D01*
X151153354Y-54852086D01*
X151202614Y-54720013D01*
X151244485Y-54664079D01*
X151309949Y-54639662D01*
X151378222Y-54654513D01*
X151406477Y-54675665D01*
X151528917Y-54798105D01*
X151722421Y-54933600D01*
X151936507Y-55033429D01*
X151936516Y-55033433D01*
X152150000Y-55090634D01*
X152150000Y-54195501D01*
X152257685Y-54244680D01*
X152364237Y-54260000D01*
X152435763Y-54260000D01*
X152542315Y-54244680D01*
X152650000Y-54195501D01*
X152650000Y-55090633D01*
X152863483Y-55033433D01*
X152863492Y-55033429D01*
X153077578Y-54933600D01*
X153271082Y-54798105D01*
X153438105Y-54631082D01*
X153573600Y-54437578D01*
X153673429Y-54223492D01*
X153673432Y-54223486D01*
X153730636Y-54010000D01*
X152833686Y-54010000D01*
X152859493Y-53969844D01*
X152900000Y-53831889D01*
X152900000Y-53688111D01*
X152859493Y-53550156D01*
X152833686Y-53510000D01*
X153730636Y-53510000D01*
X153730635Y-53509999D01*
X153673432Y-53296513D01*
X153673429Y-53296507D01*
X153573600Y-53082422D01*
X153573599Y-53082420D01*
X153438113Y-52888926D01*
X153438108Y-52888920D01*
X153271082Y-52721894D01*
X153077578Y-52586399D01*
X152863492Y-52486570D01*
X152863486Y-52486567D01*
X152650000Y-52429364D01*
X152650000Y-53324498D01*
X152542315Y-53275320D01*
X152435763Y-53260000D01*
X152364237Y-53260000D01*
X152257685Y-53275320D01*
X152150000Y-53324498D01*
X152150000Y-52429364D01*
X152149999Y-52429364D01*
X151936513Y-52486567D01*
X151936507Y-52486570D01*
X151722422Y-52586399D01*
X151722420Y-52586400D01*
X151528926Y-52721886D01*
X151406477Y-52844335D01*
X151345154Y-52877819D01*
X151275462Y-52872835D01*
X151219529Y-52830963D01*
X151202614Y-52799986D01*
X151153354Y-52667913D01*
X151153350Y-52667906D01*
X151067190Y-52552812D01*
X151067187Y-52552809D01*
X150952093Y-52466649D01*
X150952086Y-52466645D01*
X150817379Y-52416403D01*
X150817372Y-52416401D01*
X150757844Y-52410000D01*
X150110000Y-52410000D01*
X150110000Y-53324498D01*
X150002315Y-53275320D01*
X149895763Y-53260000D01*
X149824237Y-53260000D01*
X149717685Y-53275320D01*
X149610000Y-53324498D01*
X149610000Y-52410000D01*
X148962155Y-52410000D01*
X148902627Y-52416401D01*
X148902620Y-52416403D01*
X148767913Y-52466645D01*
X148767906Y-52466649D01*
X148652812Y-52552809D01*
X148652809Y-52552812D01*
X148566649Y-52667906D01*
X148566645Y-52667913D01*
X148516403Y-52802620D01*
X148516401Y-52802627D01*
X148510000Y-52862155D01*
X148510000Y-53510000D01*
X149426314Y-53510000D01*
X149400507Y-53550156D01*
X149360000Y-53688111D01*
X149360000Y-53831889D01*
X149400507Y-53969844D01*
X149426314Y-54010000D01*
X148510000Y-54010000D01*
X148510000Y-54657844D01*
X138187854Y-54657844D01*
X138252331Y-54633796D01*
X138367546Y-54547546D01*
X138453796Y-54432331D01*
X138504091Y-54297483D01*
X138510500Y-54237873D01*
X138510499Y-52442128D01*
X138504091Y-52382517D01*
X138453884Y-52247906D01*
X138453797Y-52247671D01*
X138453793Y-52247664D01*
X138367547Y-52132455D01*
X138367544Y-52132452D01*
X138252335Y-52046206D01*
X138252328Y-52046202D01*
X138117482Y-51995908D01*
X138117483Y-51995908D01*
X138057883Y-51989501D01*
X138057881Y-51989500D01*
X138057873Y-51989500D01*
X138057864Y-51989500D01*
X136262129Y-51989500D01*
X136262123Y-51989501D01*
X136202516Y-51995908D01*
X136067671Y-52046202D01*
X136067664Y-52046206D01*
X135952455Y-52132452D01*
X135952452Y-52132455D01*
X135866206Y-52247664D01*
X135866202Y-52247671D01*
X135815908Y-52382517D01*
X135810872Y-52429364D01*
X135809501Y-52442123D01*
X135809500Y-52442135D01*
X135809500Y-52588500D01*
X135789815Y-52655539D01*
X135737011Y-52701294D01*
X135685500Y-52712500D01*
X131654965Y-52712500D01*
X131639314Y-52710772D01*
X131639288Y-52711054D01*
X131631525Y-52710319D01*
X131562154Y-52712500D01*
X131532521Y-52712500D01*
X131525607Y-52713373D01*
X131519790Y-52713830D01*
X131473058Y-52715299D01*
X131473054Y-52715300D01*
X131453722Y-52720916D01*
X131434682Y-52724859D01*
X131414708Y-52727383D01*
X131414701Y-52727385D01*
X131371239Y-52744592D01*
X131365712Y-52746485D01*
X131320809Y-52759531D01*
X131320808Y-52759531D01*
X131303474Y-52769782D01*
X131286012Y-52778336D01*
X131267300Y-52785745D01*
X131267295Y-52785748D01*
X131229473Y-52813226D01*
X131224591Y-52816433D01*
X131184341Y-52840238D01*
X131170107Y-52854472D01*
X131155318Y-52867104D01*
X131139032Y-52878937D01*
X131109227Y-52914963D01*
X131105295Y-52919285D01*
X129485415Y-54539164D01*
X129424092Y-54572649D01*
X129365641Y-54571258D01*
X129267413Y-54544938D01*
X129267403Y-54544936D01*
X129032001Y-54524341D01*
X129031999Y-54524341D01*
X128796596Y-54544936D01*
X128796586Y-54544938D01*
X128568344Y-54606094D01*
X128568335Y-54606098D01*
X128354171Y-54705964D01*
X128354169Y-54705965D01*
X128160597Y-54841505D01*
X127993505Y-55008597D01*
X127863575Y-55194158D01*
X127808998Y-55237783D01*
X127739500Y-55244977D01*
X127677145Y-55213454D01*
X127660425Y-55194158D01*
X127530494Y-55008597D01*
X127363402Y-54841506D01*
X127363395Y-54841501D01*
X127169834Y-54705967D01*
X127169830Y-54705965D01*
X127121864Y-54683598D01*
X126955663Y-54606097D01*
X126955659Y-54606096D01*
X126955655Y-54606094D01*
X126727413Y-54544938D01*
X126727403Y-54544936D01*
X126492001Y-54524341D01*
X126491999Y-54524341D01*
X126256596Y-54544936D01*
X126256586Y-54544938D01*
X126028344Y-54606094D01*
X126028335Y-54606098D01*
X125814171Y-54705964D01*
X125814169Y-54705965D01*
X125620597Y-54841505D01*
X125453505Y-55008597D01*
X125317965Y-55202169D01*
X125317964Y-55202171D01*
X125218098Y-55416335D01*
X125218094Y-55416344D01*
X125156938Y-55644586D01*
X125156936Y-55644596D01*
X125136341Y-55879999D01*
X125136341Y-55880000D01*
X125156936Y-56115403D01*
X125156938Y-56115413D01*
X125218094Y-56343655D01*
X125218096Y-56343659D01*
X125218097Y-56343663D01*
X125250939Y-56414092D01*
X125317965Y-56557830D01*
X125317967Y-56557834D01*
X125426281Y-56712521D01*
X125453501Y-56751396D01*
X125453506Y-56751402D01*
X125620597Y-56918493D01*
X125620603Y-56918498D01*
X125806158Y-57048425D01*
X125849783Y-57103002D01*
X125856977Y-57172500D01*
X125825454Y-57234855D01*
X125806158Y-57251575D01*
X125620597Y-57381505D01*
X125453505Y-57548597D01*
X125317965Y-57742169D01*
X125317964Y-57742171D01*
X125218098Y-57956335D01*
X125218094Y-57956344D01*
X125156938Y-58184586D01*
X125156936Y-58184596D01*
X125136341Y-58419999D01*
X125136341Y-58420000D01*
X125156936Y-58655403D01*
X125156938Y-58655413D01*
X125218094Y-58883655D01*
X125218096Y-58883659D01*
X125218097Y-58883663D01*
X125293875Y-59046169D01*
X125317965Y-59097830D01*
X125317967Y-59097834D01*
X125384365Y-59192659D01*
X125453501Y-59291396D01*
X125453506Y-59291402D01*
X125620597Y-59458493D01*
X125620603Y-59458498D01*
X125806158Y-59588425D01*
X125849783Y-59643002D01*
X125856977Y-59712500D01*
X125825454Y-59774855D01*
X125806158Y-59791575D01*
X125620597Y-59921505D01*
X125453505Y-60088597D01*
X125317965Y-60282169D01*
X125317964Y-60282171D01*
X125218098Y-60496335D01*
X125218094Y-60496344D01*
X125156938Y-60724586D01*
X125156936Y-60724596D01*
X125136341Y-60959999D01*
X125136341Y-60960000D01*
X125156936Y-61195403D01*
X125156938Y-61195413D01*
X125218094Y-61423655D01*
X125218096Y-61423659D01*
X125218097Y-61423663D01*
X125297992Y-61594998D01*
X125317965Y-61637830D01*
X125317967Y-61637834D01*
X125420139Y-61783750D01*
X125453504Y-61831400D01*
X125453506Y-61831402D01*
X125620597Y-61998493D01*
X125620603Y-61998498D01*
X125806158Y-62128425D01*
X125849783Y-62183002D01*
X125856977Y-62252500D01*
X125825454Y-62314855D01*
X125806158Y-62331575D01*
X125620597Y-62461505D01*
X125453505Y-62628597D01*
X125317965Y-62822169D01*
X125317964Y-62822171D01*
X125218098Y-63036335D01*
X125218094Y-63036344D01*
X125156938Y-63264586D01*
X125156936Y-63264596D01*
X125136341Y-63499999D01*
X125136341Y-63500000D01*
X125156936Y-63735403D01*
X125156938Y-63735413D01*
X125218094Y-63963655D01*
X125218096Y-63963659D01*
X125218097Y-63963663D01*
X125293875Y-64126169D01*
X125317965Y-64177830D01*
X125317967Y-64177834D01*
X125407174Y-64305234D01*
X125453504Y-64371400D01*
X125453506Y-64371402D01*
X125620597Y-64538493D01*
X125620603Y-64538498D01*
X125705185Y-64597723D01*
X125790031Y-64657133D01*
X125806594Y-64668730D01*
X125850219Y-64723307D01*
X125857413Y-64792805D01*
X125825890Y-64855160D01*
X125806595Y-64871880D01*
X125620922Y-65001890D01*
X125620920Y-65001891D01*
X125453891Y-65168920D01*
X125453886Y-65168926D01*
X125318400Y-65362420D01*
X125318399Y-65362422D01*
X125218570Y-65576507D01*
X125218567Y-65576513D01*
X125161364Y-65789999D01*
X125161364Y-65790000D01*
X126058314Y-65790000D01*
X126032507Y-65830156D01*
X125992000Y-65968111D01*
X125992000Y-66111889D01*
X126032507Y-66249844D01*
X126058314Y-66290000D01*
X125161364Y-66290000D01*
X125218567Y-66503486D01*
X125218570Y-66503492D01*
X125318399Y-66717578D01*
X125453894Y-66911082D01*
X125620917Y-67078105D01*
X125806595Y-67208119D01*
X125850219Y-67262696D01*
X125857412Y-67332195D01*
X125825890Y-67394549D01*
X125806595Y-67411269D01*
X125620594Y-67541508D01*
X125453505Y-67708597D01*
X125317965Y-67902169D01*
X125317964Y-67902171D01*
X125218098Y-68116335D01*
X125218094Y-68116344D01*
X125156938Y-68344586D01*
X125156936Y-68344596D01*
X125136341Y-68579999D01*
X125136341Y-68580000D01*
X124506500Y-68580000D01*
X124506500Y-62219500D01*
X124506500Y-50802682D01*
X124506733Y-50797326D01*
X124520283Y-50642449D01*
X124524034Y-50621178D01*
X124562161Y-50478884D01*
X124569553Y-50458579D01*
X124631802Y-50325085D01*
X124642609Y-50306366D01*
X124727100Y-50185700D01*
X124740988Y-50169148D01*
X124845148Y-50064988D01*
X124861700Y-50051100D01*
X124982366Y-49966609D01*
X125001085Y-49955802D01*
X125134579Y-49893553D01*
X125154884Y-49886161D01*
X125297178Y-49848034D01*
X125318451Y-49844283D01*
X125473305Y-49830735D01*
X125478706Y-49830500D01*
X125523595Y-49830500D01*
X176482405Y-49830500D01*
X176527294Y-49830500D01*
X176532694Y-49830735D01*
G37*
%TD.AperFunction*%
%TD*%
M02*
