%TF.GenerationSoftware,KiCad,Pcbnew,7.0.6*%
%TF.CreationDate,2024-05-30T22:34:02-07:00*%
%TF.ProjectId,pmod_lvl_shft,706d6f64-5f6c-4766-9c5f-736866742e6b,rev?*%
%TF.SameCoordinates,Original*%
%TF.FileFunction,Soldermask,Top*%
%TF.FilePolarity,Negative*%
%FSLAX46Y46*%
G04 Gerber Fmt 4.6, Leading zero omitted, Abs format (unit mm)*
G04 Created by KiCad (PCBNEW 7.0.6) date 2024-05-30 22:34:02*
%MOMM*%
%LPD*%
G01*
G04 APERTURE LIST*
G04 Aperture macros list*
%AMRoundRect*
0 Rectangle with rounded corners*
0 $1 Rounding radius*
0 $2 $3 $4 $5 $6 $7 $8 $9 X,Y pos of 4 corners*
0 Add a 4 corners polygon primitive as box body*
4,1,4,$2,$3,$4,$5,$6,$7,$8,$9,$2,$3,0*
0 Add four circle primitives for the rounded corners*
1,1,$1+$1,$2,$3*
1,1,$1+$1,$4,$5*
1,1,$1+$1,$6,$7*
1,1,$1+$1,$8,$9*
0 Add four rect primitives between the rounded corners*
20,1,$1+$1,$2,$3,$4,$5,0*
20,1,$1+$1,$4,$5,$6,$7,0*
20,1,$1+$1,$6,$7,$8,$9,0*
20,1,$1+$1,$8,$9,$2,$3,0*%
G04 Aperture macros list end*
%ADD10RoundRect,0.200000X-0.275000X0.200000X-0.275000X-0.200000X0.275000X-0.200000X0.275000X0.200000X0*%
%ADD11R,1.700000X1.700000*%
%ADD12O,1.700000X1.700000*%
%ADD13RoundRect,0.225000X-0.250000X0.225000X-0.250000X-0.225000X0.250000X-0.225000X0.250000X0.225000X0*%
%ADD14R,1.100000X0.200000*%
%ADD15R,1.000000X0.200000*%
G04 APERTURE END LIST*
D10*
%TO.C,R1*%
X158242000Y-63120000D03*
X158242000Y-64770000D03*
%TD*%
D11*
%TO.C,J7*%
X137160000Y-53340000D03*
D12*
X137160000Y-55880000D03*
X137160000Y-58420000D03*
X137160000Y-60960000D03*
X137160000Y-63500000D03*
X137160000Y-66040000D03*
X137160000Y-68580000D03*
X137160000Y-71120000D03*
%TD*%
D11*
%TO.C,J6*%
X163322000Y-53340000D03*
D12*
X163322000Y-55880000D03*
X163322000Y-58420000D03*
X163322000Y-60960000D03*
X163322000Y-63500000D03*
X163322000Y-66040000D03*
X163322000Y-68580000D03*
X163322000Y-71120000D03*
%TD*%
D11*
%TO.C,J5*%
X149860000Y-53760000D03*
D12*
X152400000Y-53760000D03*
%TD*%
D11*
%TO.C,J4*%
X170180000Y-53340000D03*
D12*
X172720000Y-53340000D03*
%TD*%
D11*
%TO.C,J3*%
X152913000Y-68829000D03*
D12*
X152913000Y-71369000D03*
X150373000Y-68829000D03*
X150373000Y-71369000D03*
%TD*%
%TO.C,J2*%
X126492000Y-55880000D03*
X129032000Y-55880000D03*
X126492000Y-58420000D03*
X129032000Y-58420000D03*
X126492000Y-60960000D03*
X129032000Y-60960000D03*
X126492000Y-63500000D03*
X129032000Y-63500000D03*
X126492000Y-66040000D03*
X129032000Y-66040000D03*
X126492000Y-68580000D03*
D11*
X129032000Y-68580000D03*
%TD*%
%TO.C,J1*%
X170180000Y-60960000D03*
D12*
X172720000Y-60960000D03*
X170180000Y-63500000D03*
X172720000Y-63500000D03*
X170180000Y-66040000D03*
X172720000Y-66040000D03*
X170180000Y-68580000D03*
X172720000Y-68580000D03*
%TD*%
D13*
%TO.C,C2*%
X147320000Y-63145000D03*
X147320000Y-64695000D03*
%TD*%
%TO.C,C1*%
X155448000Y-64783000D03*
X155448000Y-63233000D03*
%TD*%
D14*
%TO.C,U1*%
X152350000Y-64180000D03*
D15*
X152400000Y-63780000D03*
X152400000Y-63380000D03*
X152400000Y-62980000D03*
X152400000Y-62580000D03*
X152400000Y-62180000D03*
X152400000Y-61780000D03*
X152400000Y-61380000D03*
X152400000Y-60980000D03*
X152400000Y-60580000D03*
X150600000Y-60580000D03*
X150600000Y-60980000D03*
X150600000Y-61380000D03*
X150600000Y-61780000D03*
X150600000Y-62180000D03*
X150600000Y-62580000D03*
X150600000Y-62980000D03*
X150600000Y-63380000D03*
X150600000Y-63780000D03*
X150600000Y-64180000D03*
%TD*%
M02*
