M48
; DRILL file {KiCad 7.0.6} date Thu May 30 22:34:02 2024
; FORMAT={-:-/ absolute / inch / decimal}
; #@! TF.CreationDate,2024-05-30T22:34:02-07:00
; #@! TF.GenerationSoftware,Kicad,Pcbnew,7.0.6
; #@! TF.FileFunction,Plated,1,2,PTH
FMAT,2
INCH
; #@! TA.AperFunction,Plated,PTH,ViaDrill
T1C0.0157
; #@! TA.AperFunction,Plated,PTH,ComponentDrill
T2C0.0394
%
G90
G05
T1
X5.18Y-2.43
X5.2Y-2.55
X5.2Y-2.66
X5.2298Y-2.4702
X5.23Y-2.25
X5.23Y-2.37
X5.3Y-2.44
X5.3Y-2.54
X5.58Y-2.647
X5.62Y-2.33
X5.629Y-2.74
X5.629Y-2.84
X5.6298Y-2.4702
X5.63Y-2.63
X5.6302Y-2.5602
X5.68Y-2.26
X5.68Y-2.4
X5.7016Y-2.66
X5.7246Y-2.33
X5.748Y-2.754
X5.75Y-2.4406
X5.7655Y-2.5845
X5.7715Y-2.6654
X5.84Y-2.3
X5.8481Y-2.5181
X5.8501Y-2.4788
X5.874Y-2.356
X6.03Y-2.61
X6.06Y-2.58
X6.0679Y-2.4951
X6.07Y-2.35
X6.1Y-2.602
X6.13Y-2.38
X6.13Y-2.4205
X6.14Y-2.34
X6.1584Y-2.56
X6.228Y-2.211
X6.228Y-2.316
X6.266Y-2.661
X6.28Y-2.46
X6.28Y-2.55
X6.321Y-2.605
X6.37Y-2.66
X6.54Y-2.76
X6.5407Y-2.35
X6.5407Y-2.46
X6.5407Y-2.56
X6.5407Y-2.6749
T2
X4.98Y-2.2
X4.98Y-2.3
X4.98Y-2.4
X4.98Y-2.5
X4.98Y-2.6
X4.98Y-2.7
X5.08Y-2.2
X5.08Y-2.3
X5.08Y-2.4
X5.08Y-2.5
X5.08Y-2.6
X5.08Y-2.7
X5.4Y-2.1
X5.4Y-2.2
X5.4Y-2.3
X5.4Y-2.4
X5.4Y-2.5
X5.4Y-2.6
X5.4Y-2.7
X5.4Y-2.8
X5.9Y-2.1165
X5.9202Y-2.7098
X5.9202Y-2.8098
X6.0Y-2.1165
X6.0202Y-2.7098
X6.0202Y-2.8098
X6.43Y-2.1
X6.43Y-2.2
X6.43Y-2.3
X6.43Y-2.4
X6.43Y-2.5
X6.43Y-2.6
X6.43Y-2.7
X6.43Y-2.8
X6.7Y-2.1
X6.7Y-2.4
X6.7Y-2.5
X6.7Y-2.6
X6.7Y-2.7
X6.8Y-2.1
X6.8Y-2.4
X6.8Y-2.5
X6.8Y-2.6
X6.8Y-2.7
T0
M30
